<?xml version="1.0" encoding="UTF-8"?>
<svg xmlns="http://www.w3.org/2000/svg" width="196" height="34" viewBox="0 0 196 34" fill="none">
  <path d="M145.98 12.41V11H141.8V18H143.31V15.32H145.72V13.95H143.31V12.41H145.98ZM149.524 18.16C151.194 18.16 152.444 16.93 152.444 15.3C152.444 13.67 151.194 12.45 149.524 12.45C147.854 12.45 146.604 13.67 146.604 15.3C146.604 16.93 147.854 18.16 149.524 18.16ZM149.524 16.78C148.684 16.78 148.084 16.18 148.084 15.3C148.084 14.43 148.684 13.82 149.524 13.82C150.364 13.82 150.964 14.43 150.964 15.3C150.964 16.18 150.364 16.78 149.524 16.78ZM156.257 12.57C155.557 12.57 155.077 12.79 154.687 13.27L154.427 12.6H153.497V18H154.957V15.2C154.957 14.32 155.277 13.95 156.097 13.95H156.737V12.57H156.257ZM165.403 11H163.783L162.163 13.81L160.553 11H158.943L161.383 15.17V18H162.933V15.18L165.403 11ZM167.903 18.16C169.573 18.16 170.823 16.93 170.823 15.3C170.823 13.67 169.573 12.45 167.903 12.45C166.233 12.45 164.983 13.67 164.983 15.3C164.983 16.93 166.233 18.16 167.903 18.16ZM167.903 16.78C167.063 16.78 166.463 16.18 166.463 15.3C166.463 14.43 167.063 13.82 167.903 13.82C168.743 13.82 169.343 14.43 169.343 15.3C169.343 16.18 168.743 16.78 167.903 16.78ZM174.336 18.16C175.866 18.16 176.876 17.18 176.876 15.72V12.6H175.416V15.56C175.416 16.32 175.016 16.78 174.336 16.78C173.666 16.78 173.256 16.33 173.256 15.56V12.6H171.796V15.72C171.796 17.18 172.816 18.16 174.336 18.16ZM178.065 18H179.615V16.44H178.065V18ZM145.98 24.41V23H141.8V30H143.31V27.32H145.72V25.95H143.31V24.41H145.98ZM149.524 30.16C151.194 30.16 152.444 28.93 152.444 27.3C152.444 25.67 151.194 24.45 149.524 24.45C147.854 24.45 146.604 25.67 146.604 27.3C146.604 28.93 147.854 30.16 149.524 30.16ZM149.524 28.78C148.684 28.78 148.084 28.18 148.084 27.3C148.084 26.43 148.684 25.82 149.524 25.82C150.364 25.82 150.964 26.43 150.964 27.3C150.964 28.18 150.364 28.78 149.524 28.78ZM156.257 24.57C155.557 24.57 155.077 24.79 154.687 25.27L154.427 24.6H153.497V30H154.957V27.2C154.957 26.32 155.277 25.95 156.097 25.95H156.737V24.57H156.257ZM161.308 28.6V23H159.798V30H163.998V28.6H161.308ZM164.923 23.88H166.373V22.53H164.923V23.88ZM164.923 30H166.383V24.6H164.923V30ZM171.084 24.68H169.694V24.22C169.694 23.84 169.894 23.64 170.284 23.64H171.074V22.49H169.994C168.854 22.49 168.274 23.15 168.274 24.19V24.68H167.334V25.88H168.264V30H169.724V25.88H171.084V24.68ZM177.067 27.29C177.067 25.73 175.927 24.45 174.267 24.45C172.667 24.45 171.467 25.68 171.467 27.3C171.467 28.92 172.677 30.16 174.267 30.16C175.527 30.16 176.557 29.41 176.947 28.23H175.417C175.197 28.62 174.777 28.86 174.267 28.86C173.557 28.86 173.077 28.45 172.947 27.71H177.037C177.057 27.57 177.067 27.43 177.067 27.29ZM174.267 25.7C174.927 25.7 175.397 26.06 175.607 26.72H172.987C173.157 26.08 173.617 25.7 174.267 25.7ZM177.967 30H179.517V28.44H177.967V30Z" fill="white"></path>
  <path d="M57.3322 0H52.0426L52.032 28.9805L58.7559 28.9378L58.7186 1.09843C58.7186 0.410579 58.068 0 57.3322 0Z" fill="white"></path>
  <path d="M136.381 2.81396L135.352 5.24545L134.248 2.81396H133.63V6.52517H134.206V4.17901L135.021 5.99729H135.619L136.392 4.15235V6.52517H137.005V2.81396H136.376H136.381ZM129.988 2.81396V3.32052H131.273V6.52517H131.923V3.32052H133.198V2.81396H129.988Z" fill="white"></path>
  <path d="M119.712 17.7942C119.69 21.2974 116.8 23.9102 112.886 23.9102C108.973 23.9102 106.109 21.2921 106.136 17.7942C106.157 14.2963 109.053 11.6835 112.972 11.6835C116.891 11.6835 119.738 14.2909 119.717 17.7942M125.396 6.64457H120.629V8.77745C118.485 7.06048 115.659 6.04736 112.46 6.04736C104.963 6.04736 99.3533 11.0703 99.3106 17.7942C99.2626 24.5448 104.808 29.6103 112.305 29.6103C115.451 29.6103 118.245 28.6292 120.399 26.9496L120.378 28.9438H126.345V7.46573C126.345 7.01249 125.876 6.64457 125.401 6.64457" fill="white"></path>
  <path d="M16.3493 17.7817L11.2197 28.6221H18.1196L22.4333 18.7629C20.3271 18.5229 18.2956 18.1923 16.3493 17.7817Z" fill="white"></path>
  <path d="M51.0611 11.8588C51.0611 10.5418 49.9413 9.47531 48.555 9.47531C48.2617 9.47531 47.9684 9.5233 47.7072 9.61395C42.1883 11.9814 35.2618 13.6931 27.6688 14.3276C26.5543 14.4183 25.4506 14.4876 24.3521 14.5356L28.4579 5.03359L31.8652 12.9466C35.2085 12.2321 38.3545 11.2776 41.2339 10.1312L37.0641 1.20508C36.7815 0.618535 36.0456 0.026661 35.3098 0H24.7574L17.9748 14.5196C9.20337 14.093 4.13245 13.2505 0 8.87277C4.81497 14.8395 10.867 17.239 24.8214 17.8948C27.9674 18.0388 31.0174 17.9748 33.9234 17.7296L38.7651 28.9805H50.0373L43.9693 15.9966C46.0755 15.4207 48.0271 14.7329 49.776 13.949C50.5545 13.5438 51.0664 12.7759 51.0664 11.8695" fill="white"></path>
  <path d="M97.3673 28.9057L97.458 14.9194C97.49 9.6938 94.0987 6.07324 89.2304 6.07324C86.239 6.07324 83.2263 7.47561 81.6054 9.64048C80.2563 7.39563 78.1128 6.07324 75.1214 6.07324C72.3487 6.07324 69.7679 7.36897 68.0829 9.36854L67.2937 7.5076C67.0485 6.93706 66.6006 6.60646 66.1153 6.60646H62.5801V28.9057H68.6854L68.7601 16.8443C68.7814 13.3517 70.5144 11.3681 73.3884 11.3681C75.6653 11.3681 76.8544 12.9358 76.833 15.9165L76.7957 28.9164H82.9544L83.0291 16.8443C83.0504 13.3517 84.746 11.3681 87.5881 11.3681C89.8916 11.3681 91.1127 12.9358 91.0967 15.9165L91.1287 28.8737L97.3727 28.911L97.3673 28.9057Z" fill="white"></path>
</svg>
