<svg width="200" height="40" viewBox="0 0 200 40" fill="none" xmlns="http://www.w3.org/2000/svg">
<g clip-path="url(#clip0_936_18751)">
<path d="M20.7995 28.6443L18.57 22.3589H8.26129L6.04485 28.6443H0L10.7962 0.44149H16.2496L26.9873 28.6443H20.7995ZM14.8261 11.8812C14.2606 10.2302 13.6952 8.54029 13.4157 7.49381C13.1297 8.54029 12.5707 10.2302 12.0052 11.8812L10.1917 16.9966H16.6396L14.8261 11.8812Z" fill="white"/>
<path d="M53.2987 28.6443V17.1981C53.2987 13.4152 52.2132 12.2842 49.9123 12.2842C47.6113 12.2842 46.4933 13.4152 46.4933 17.0811V28.6443H40.949V17.1981C40.949 13.4152 39.8635 12.2842 37.5691 12.2842C35.2746 12.2842 34.1436 13.4152 34.1436 17.0811V28.6443H28.5993V7.49381H34.1566V8.90428C34.7557 8.28738 35.478 7.80359 36.2765 7.48442C37.075 7.16525 37.9318 7.01785 38.791 7.05182C41.4885 7.05182 43.0614 7.8123 44.6409 9.74926C46.0903 8.26079 47.8908 7.05182 51.3682 7.05182C56.7696 7.05182 58.9015 10.7567 58.9015 16.7171V28.6443H53.2987Z" fill="white"/>
<path d="M71.3942 29.0899C66.6818 29.0899 62.5674 27.1399 60.4355 23.9745L64.5044 20.3476C65.3872 21.3907 66.4936 22.2216 67.7415 22.7786C68.9894 23.3356 70.3467 23.6044 71.7127 23.565C75.0601 23.565 76.6266 22.642 76.6266 20.5101C76.6266 18.6966 75.6646 17.9102 70.3412 16.6817C65.1414 15.4727 61.521 13.8218 61.521 8.2644C61.521 3.14253 66.0318 0.00310623 71.5957 0.00310623C73.5306 -0.0416519 75.4524 0.331149 77.2302 1.09612C79.008 1.86108 80.6001 3.00024 81.8979 4.436L77.8291 8.3814C77.0262 7.47458 76.0409 6.74758 74.9376 6.24801C73.8342 5.74844 72.6378 5.48756 71.4267 5.48247C68.4043 5.48247 67.3968 6.78244 67.3968 8.01741C67.3968 9.79186 68.6058 10.3573 73.0777 11.4038C77.5496 12.4503 82.5024 14.0038 82.5024 20.1071C82.4699 25.463 79.0835 29.0899 71.3942 29.0899Z" fill="white"/>
<path d="M94.0267 29.0899C92.3822 29.1054 90.7891 28.5181 89.5483 27.4389V32.3268L83.9909 36.4022V7.49741H89.5483V8.79738C90.7629 7.6616 92.3637 7.02966 94.0267 7.02943C98.5375 7.02943 102.242 10.4093 102.242 18.3066C102.242 24.657 99.259 29.0899 94.0267 29.0899ZM92.9477 12.2878C92.2719 12.2612 91.6007 12.4107 91.0002 12.7218C90.3997 13.0329 89.8903 13.4948 89.5223 14.0623V22.0376C89.951 22.624 90.5172 23.0961 91.1712 23.4123C91.8251 23.7285 92.5468 23.8792 93.2727 23.851C95.4046 23.851 96.5746 21.9986 96.5746 18.4561C96.6006 14.1012 95.1511 12.2878 92.9477 12.2878Z" fill="white"/>
<path d="M116.029 28.6443V27.2338C114.747 28.448 113.042 29.1128 111.277 29.0863C107.325 29.0863 103.38 26.6683 103.38 21.553C103.38 16.8796 107.169 14.5396 111.96 14.5396C113.364 14.4912 114.76 14.781 116.029 15.3846V14.3381C116.029 12.8497 115.021 11.6407 113.006 11.6407C110.977 11.5364 108.962 12.0266 107.208 13.0512L105.07 9.18378C107.448 7.7073 110.209 6.96565 113.006 7.05183C118.128 7.05183 121.586 9.71026 121.586 14.4616V28.6443H116.029ZM116.029 19.7785C115.06 19.174 114.137 18.8945 112.161 18.8945C110.068 18.8945 108.911 19.8565 108.911 21.553C108.911 23.0414 109.763 24.3739 112.161 24.3739C112.917 24.3959 113.667 24.2291 114.342 23.8886C115.017 23.5482 115.597 23.0448 116.029 22.4239V19.7785Z" fill="white"/>
<path d="M129.854 21.488L129.451 20.357H127.585L127.189 21.488H126.097L128.047 16.3986H129.035L130.985 21.488H129.854ZM128.775 18.459C128.671 18.1665 128.573 17.8611 128.521 17.6661C128.469 17.8611 128.365 18.1665 128.268 18.459L127.936 19.3885H129.1L128.775 18.459Z" fill="white"/>
<path d="M135.671 21.488V19.6225C135.671 19.343 135.671 18.693 135.671 18.498C135.6 18.6865 135.444 19.0505 135.314 19.343L134.28 21.605L133.247 19.343C133.117 19.0505 132.967 18.693 132.889 18.498C132.889 18.693 132.889 19.343 132.889 19.6225V21.488H131.947V16.3986H132.928L133.994 18.6995C134.124 18.9855 134.28 19.3495 134.345 19.551C134.41 19.3625 134.553 18.992 134.683 18.6995L135.71 16.3986H136.718V21.488H135.671Z" fill="white"/>
<path d="M138.005 21.488V16.3986H141.54V17.3931H139.025V18.2705H140.487V19.265H139.025V20.4935H141.625V21.488H138.005Z" fill="white"/>
<path d="M145.694 21.488L144.784 19.655H143.757V21.488H142.736V16.3986H145.109C145.333 16.3734 145.561 16.3967 145.775 16.4668C145.99 16.5369 146.187 16.6522 146.353 16.805C146.52 16.9578 146.651 17.1444 146.739 17.3524C146.827 17.5604 146.87 17.7848 146.864 18.0106C146.893 18.3338 146.813 18.6576 146.636 18.9298C146.459 19.202 146.196 19.4071 145.889 19.512L146.864 21.462L145.694 21.488ZM145.089 17.3866H143.757V18.6865H145.089C145.564 18.6865 145.817 18.472 145.817 18.0366C145.817 17.6011 145.538 17.3866 145.089 17.3866Z" fill="white"/>
<path d="M148.008 21.488V16.3986H149.028V21.488H148.008Z" fill="white"/>
<path d="M153.325 17.8806C153.243 17.7059 153.111 17.5599 152.945 17.4614C152.779 17.3628 152.588 17.3164 152.395 17.3281C151.628 17.3281 151.193 17.978 151.193 18.94C151.193 19.902 151.635 20.5585 152.402 20.5585C152.613 20.5619 152.821 20.5019 152.999 20.386C153.176 20.2701 153.314 20.1038 153.396 19.9085L154.254 20.422C154.093 20.7818 153.827 21.0844 153.49 21.2898C153.154 21.4952 152.763 21.5937 152.369 21.5725C151.069 21.5725 150.146 20.552 150.146 18.9725C150.146 17.3931 151.076 16.3726 152.408 16.3726C152.796 16.3537 153.181 16.4513 153.514 16.6528C153.846 16.8543 154.111 17.1506 154.274 17.5036L153.325 17.8806Z" fill="white"/>
<path d="M158.596 21.488L158.193 20.357H156.328L155.931 21.488H154.839L156.789 16.3986H157.777L159.727 21.488H158.596ZM157.517 18.459C157.413 18.1665 157.309 17.8611 157.264 17.6661C157.212 17.8611 157.108 18.1665 157.004 18.459L156.679 19.3885H157.842L157.517 18.459Z" fill="white"/>
<path d="M163.848 21.488L161.976 18.7125C161.852 18.5175 161.683 18.264 161.618 18.134C161.618 18.3225 161.618 18.966 161.618 19.2455V21.488H160.611V16.3986H161.586L163.393 19.0895C163.516 19.278 163.685 19.5315 163.75 19.6615C163.75 19.473 163.75 18.836 163.75 18.55V16.3986H164.758V21.488H163.848Z" fill="white"/>
<path d="M171.934 21.488V19.6225C171.934 19.343 171.934 18.693 171.934 18.498C171.862 18.6865 171.706 19.0505 171.576 19.343L170.543 21.605L169.509 19.343C169.379 19.0505 169.223 18.693 169.152 18.498C169.152 18.693 169.152 19.343 169.152 19.6225V21.488H168.157V16.3986H169.139L170.205 18.6995C170.335 18.9855 170.484 19.3495 170.549 19.551C170.614 19.3625 170.764 18.992 170.894 18.6995L171.921 16.3986H172.922V21.488H171.934Z" fill="white"/>
<path d="M174.267 21.488V16.3986H177.803V17.3931H175.281V18.2705H176.744V19.265H175.281V20.4935H177.914V21.488H174.267Z" fill="white"/>
<path d="M180.52 21.488H178.999V16.3986H180.591C182.047 16.3986 183.126 17.0811 183.126 18.94C183.146 19.2848 183.092 19.6298 182.967 19.9518C182.842 20.2738 182.65 20.5653 182.403 20.8067C182.156 21.0481 181.86 21.2338 181.535 21.3514C181.21 21.4689 180.864 21.5154 180.52 21.488ZM180.559 17.3866H180.045V20.5H180.552C180.763 20.524 180.976 20.5001 181.176 20.4301C181.376 20.3601 181.557 20.2458 181.707 20.0958C181.856 19.9457 181.97 19.7638 182.039 19.5637C182.108 19.3635 182.131 19.1503 182.106 18.94C182.073 17.9001 181.631 17.3866 180.559 17.3866Z" fill="white"/>
<path d="M187.988 21.5725C187.613 21.5851 187.239 21.5072 186.9 21.3455C186.561 21.1837 186.265 20.9428 186.038 20.643L186.773 19.993C186.933 20.1799 187.133 20.3288 187.358 20.4288C187.582 20.5289 187.827 20.5776 188.073 20.5715C188.677 20.5715 188.963 20.4025 188.963 20.019C188.963 19.6355 188.788 19.5445 187.826 19.33C186.864 19.1155 186.233 18.81 186.233 17.8091C186.233 16.8081 187.052 16.3141 188.053 16.3141C188.401 16.3065 188.747 16.374 189.067 16.512C189.386 16.6499 189.672 16.8551 189.906 17.1136L189.145 17.8286C189 17.6645 188.822 17.5328 188.623 17.4421C188.424 17.3514 188.207 17.3037 187.988 17.3021C187.442 17.3021 187.26 17.5361 187.26 17.7636C187.26 17.9911 187.481 18.186 188.287 18.3745C189.093 18.563 189.99 18.8425 189.99 19.9475C189.99 20.916 189.379 21.5725 187.988 21.5725Z" fill="white"/>
<path d="M193.214 19.6875H192.09V21.488H191.095V16.3986H193.325C193.549 16.3734 193.776 16.3967 193.991 16.4668C194.206 16.5369 194.403 16.6522 194.569 16.805C194.735 16.9578 194.867 17.1444 194.955 17.3524C195.043 17.5604 195.086 17.7848 195.08 18.0106C195.054 19.1935 194.267 19.6875 193.214 19.6875ZM193.266 17.3866H192.09V18.6865H193.279C193.754 18.6865 194.007 18.472 194.007 18.0366C194.007 17.6011 193.695 17.3866 193.266 17.3866Z" fill="white"/>
<path d="M198.895 21.488L198.499 20.357H196.633L196.23 21.488H195.125L197.075 16.3986H198.063L200.013 21.488H198.895ZM197.823 18.459C197.719 18.1665 197.615 17.8611 197.563 17.6661C197.517 17.8611 197.413 18.1665 197.309 18.459L196.984 19.3885H198.148L197.823 18.459Z" fill="white"/>
<path d="M129.854 28.7743L129.451 27.6368H127.585L127.189 28.7743H126.097L128.047 23.6784H129.035L130.985 28.7743H129.854ZM128.775 25.7454C128.671 25.4464 128.573 25.1409 128.521 24.9524C128.469 25.1409 128.365 25.4464 128.268 25.7454L127.936 26.6488H129.1L128.775 25.7454Z" fill="white"/>
<path d="M133.474 28.8523C133.099 28.863 132.727 28.7849 132.389 28.6245C132.05 28.4641 131.754 28.2259 131.524 27.9293L132.259 27.2793C132.418 27.4674 132.618 27.6175 132.843 27.7187C133.067 27.8199 133.312 27.8697 133.559 27.8643C134.163 27.8643 134.443 27.6953 134.443 27.3118C134.443 26.9283 134.274 26.8373 133.312 26.6163C132.35 26.3953 131.719 26.1029 131.719 25.0954C131.719 24.0879 132.532 23.6069 133.539 23.6069C133.887 23.6006 134.232 23.6687 134.552 23.8066C134.871 23.9444 135.158 24.1489 135.392 24.4064L134.657 25.1214C134.513 24.9567 134.335 24.8246 134.135 24.7338C133.936 24.643 133.719 24.5957 133.5 24.5949C132.954 24.5949 132.772 24.8289 132.772 25.0499C132.772 25.3749 132.993 25.4724 133.799 25.6674C134.605 25.8624 135.502 26.1289 135.502 27.2338C135.476 28.1958 134.865 28.8523 133.474 28.8523Z" fill="white"/>
<path d="M138.18 28.8523C137.802 28.8705 137.424 28.798 137.079 28.6408C136.734 28.4837 136.432 28.2464 136.198 27.9488L136.932 27.2988C137.092 27.4869 137.291 27.637 137.516 27.7382C137.741 27.8394 137.985 27.8892 138.232 27.8838C138.837 27.8838 139.116 27.7148 139.116 27.3313C139.116 26.9478 138.947 26.8568 137.985 26.6358C137.023 26.4148 136.386 26.1223 136.386 25.1149C136.386 24.1074 137.205 23.6264 138.213 23.6264C138.561 23.6193 138.906 23.687 139.226 23.8249C139.545 23.9628 139.831 24.1678 140.065 24.4259L139.331 25.1409C139.187 24.9755 139.009 24.843 138.809 24.7521C138.61 24.6613 138.393 24.6144 138.174 24.6144C137.628 24.6144 137.446 24.8484 137.446 25.0694C137.446 25.3944 137.66 25.4919 138.473 25.6869C139.285 25.8819 140.176 26.1484 140.176 27.2533C140.182 28.1958 139.571 28.8523 138.18 28.8523Z" fill="white"/>
<path d="M143.165 28.8523C141.781 28.8523 140.955 27.7733 140.955 26.2523C140.955 24.7314 141.781 23.6524 143.165 23.6524C144.55 23.6524 145.382 24.7249 145.382 26.2523C145.382 27.7798 144.556 28.8523 143.165 28.8523ZM143.165 24.6079C142.346 24.6079 142.002 25.3164 142.002 26.2263C142.002 27.1363 142.346 27.8448 143.165 27.8448C143.984 27.8448 144.335 27.1363 144.335 26.2263C144.335 25.3164 143.991 24.6079 143.165 24.6079Z" fill="white"/>
<path d="M149.334 25.1604C149.251 24.9863 149.119 24.8408 148.953 24.7423C148.788 24.6439 148.597 24.5971 148.404 24.6079C147.637 24.6079 147.202 25.2579 147.202 26.2264C147.202 27.1948 147.65 27.8448 148.411 27.8448C148.623 27.847 148.831 27.7864 149.009 27.6708C149.187 27.5552 149.327 27.3896 149.412 27.1948L150.27 27.7018C150.109 28.0616 149.842 28.3642 149.506 28.5696C149.169 28.775 148.778 28.8735 148.385 28.8523C147.085 28.8523 146.155 27.8318 146.155 26.2524C146.155 24.6729 147.085 23.6524 148.417 23.6524C148.796 23.6261 149.175 23.7111 149.506 23.8971C149.838 24.083 150.108 24.3617 150.283 24.6989L149.334 25.1604Z" fill="white"/>
<path d="M151.375 28.7743V23.6784H152.395V28.7743H151.375Z" fill="white"/>
<path d="M157.173 28.7743L156.77 27.6368H154.911L154.508 28.7743H153.396L155.346 23.6784H156.334L158.284 28.7743H157.173ZM156.094 25.7454C155.996 25.4464 155.892 25.1409 155.84 24.9524C155.788 25.1409 155.684 25.4464 155.587 25.7454L155.262 26.6683H156.425L156.094 25.7454Z" fill="white"/>
<path d="M160.708 24.6989V28.7873H159.688V24.6989H158.226V23.6784H162.171V24.6989H160.708Z" fill="white"/>
<path d="M163.224 28.7743V23.6784H164.244V28.7743H163.224Z" fill="white"/>
<path d="M167.572 28.8523C166.181 28.8523 165.362 27.7733 165.362 26.2523C165.362 24.7314 166.181 23.6524 167.572 23.6524C168.963 23.6524 169.782 24.7249 169.782 26.2523C169.782 27.7798 168.996 28.8523 167.572 28.8523ZM167.572 24.6079C166.753 24.6079 166.409 25.3164 166.409 26.2263C166.409 27.1363 166.753 27.8448 167.572 27.8448C168.391 27.8448 168.736 27.1363 168.736 26.2263C168.736 25.3164 168.398 24.6079 167.572 24.6079Z" fill="white"/>
<path d="M174.046 28.7743L172.174 25.9989C172.051 25.8104 171.882 25.5569 171.817 25.4269C171.817 25.6154 171.817 26.2523 171.817 26.5383V28.7808H170.809V23.6784H171.784L173.591 26.3693C173.715 26.5578 173.884 26.8178 173.949 26.9478C173.949 26.7593 173.949 26.1159 173.949 25.8299V23.6784H174.95V28.7743H174.046Z" fill="white"/>
<path d="M86.8378 36.7106C86.8378 36.7106 100.169 27.0128 122.392 31.8487C144.615 36.6846 191.375 34.0847 199.201 24.5754C197.511 27.5588 175.08 41.5465 126.831 35.2091C117.101 34.1042 106.727 28.5078 86.8378 36.7106Z" fill="white"/>
<path d="M87.5788 37.4061C87.5788 37.4061 100.884 31.1077 114.514 34.5006C126.032 37.3606 166.74 43.0219 193.24 29.8468C190.38 31.8812 165.941 46.2198 115.502 36.5351C111.986 36.0476 103.633 32.9472 87.5788 37.4061Z" fill="white"/>
</g>
<defs>
<clipPath id="clip0_936_18751">
<rect width="200" height="39.8635" fill="white" transform="translate(0 -0.000495911)"/>
</clipPath>
</defs>
</svg>
