<svg width="326" height="65" viewBox="0 0 326 65" fill="none" xmlns="http://www.w3.org/2000/svg">
<g clip-path="url(#clip0_950_20150)">
<path d="M34.5094 46.7072L30.8865 36.4585H14.1348L10.5331 46.7072H0.710205L18.2541 0.720703H27.1158L44.5646 46.7072H34.5094ZM24.8027 19.3739C23.8838 16.6819 22.9648 13.9263 22.5107 12.22C22.0459 13.9263 21.1376 16.6819 20.2187 19.3739L17.2718 27.7148H27.7495L24.8027 19.3739Z" fill="#005B9F"/>
<path d="M87.3206 46.7074V28.0436C87.3206 21.8753 85.5567 20.0312 81.8176 20.0312C78.0786 20.0312 76.2619 21.8753 76.2619 27.8528V46.7074H67.2523V28.0436C67.2523 21.8753 65.4884 20.0312 61.76 20.0312C58.0315 20.0312 56.1937 21.8753 56.1937 27.8528V46.7074H47.1841V12.2202H56.2148V14.52C57.1883 13.5141 58.362 12.7253 59.6596 12.2049C60.9571 11.6844 62.3494 11.4441 63.7457 11.4995C68.129 11.4995 70.6851 12.7395 73.2517 15.8978C75.6071 13.4708 78.5328 11.4995 84.1836 11.4995C92.9608 11.4995 96.4252 17.5406 96.4252 27.2593V46.7074H87.3206Z" fill="#005B9F"/>
<path d="M116.726 47.4279C109.068 47.4279 102.382 44.2483 98.9178 39.0869L105.53 33.173C106.964 34.8739 108.762 36.2287 110.79 37.1369C112.818 38.0452 115.024 38.4834 117.243 38.4192C122.683 38.4192 125.228 36.9142 125.228 33.438C125.228 30.481 123.665 29.1986 115.015 27.1955C106.565 25.2242 100.682 22.5322 100.682 13.4706C100.682 5.11904 108.012 1.41465e-05 117.053 1.41465e-05C120.197 -0.0729669 123.32 0.534909 126.209 1.78224C129.098 3.02956 131.685 4.88703 133.794 7.22812L127.182 13.6614C125.878 12.1827 124.277 10.9973 122.484 10.1827C120.691 9.36815 118.747 8.94277 116.779 8.93447C111.867 8.93447 110.23 11.0541 110.23 13.0678C110.23 15.9612 112.195 16.8833 119.461 18.5896C126.728 20.296 134.777 22.829 134.777 32.7809C134.724 41.514 129.221 47.4279 116.726 47.4279Z" fill="#28AAE2"/>
<path d="M153.504 47.428C150.831 47.4534 148.243 46.4957 146.226 44.736V52.706L137.195 59.3512V12.2201H146.226V14.3398C148.2 12.4878 150.801 11.4574 153.504 11.457C160.834 11.457 166.854 16.9682 166.854 29.8453C166.854 40.1999 162.006 47.428 153.504 47.428ZM151.75 20.0311C150.652 19.9877 149.561 20.2316 148.586 20.7388C147.61 21.2461 146.782 21.9993 146.184 22.9245V35.9287C146.881 36.8849 147.801 37.6547 148.863 38.1703C149.926 38.6859 151.099 38.9316 152.278 38.8857C155.743 38.8857 157.644 35.8652 157.644 30.089C157.686 22.9881 155.331 20.0311 151.75 20.0311Z" fill="#28AAE2"/>
<path d="M189.257 46.7072V44.4073C187.175 46.387 184.404 47.4711 181.536 47.4279C175.114 47.4279 168.703 43.4853 168.703 35.1443C168.703 27.5241 174.86 23.7086 182.645 23.7086C184.927 23.6296 187.195 24.1021 189.257 25.0864V23.3801C189.257 20.953 187.619 18.9817 184.345 18.9817C181.049 18.8116 177.774 19.6109 174.924 21.2816L171.449 14.9755C175.313 12.5681 179.799 11.3588 184.345 11.4993C192.668 11.4993 198.287 15.834 198.287 23.5815V46.7072H189.257ZM189.257 32.2509C187.683 31.2653 186.183 30.8096 182.972 30.8096C179.571 30.8096 177.691 32.3781 177.691 35.1443C177.691 37.5713 179.075 39.744 182.972 39.744C184.2 39.7798 185.418 39.5079 186.516 38.9527C187.613 38.3976 188.555 37.5768 189.257 36.5645V32.2509Z" fill="#28AAE2"/>
<path d="M211.723 35.0383L211.068 33.1942H208.036L207.392 35.0383H205.618L208.786 26.7397H210.392L213.56 35.0383H211.723ZM209.969 30.0994C209.8 29.6225 209.642 29.1244 209.557 28.8064C209.473 29.1244 209.304 29.6225 209.145 30.0994L208.607 31.615H210.497L209.969 30.0994Z" fill="#6D6E71"/>
<path d="M221.176 35.0383V31.9966C221.176 31.5408 221.176 30.481 221.176 30.163C221.06 30.4704 220.806 31.0639 220.595 31.5408L218.915 35.2291L217.236 31.5408C217.025 31.0639 216.782 30.481 216.655 30.163C216.655 30.481 216.655 31.5408 216.655 31.9966V35.0383H215.124V26.7397H216.718L218.451 30.4916C218.662 30.9579 218.915 31.5514 219.021 31.88C219.127 31.5726 219.359 30.9685 219.57 30.4916L221.239 26.7397H222.876V35.0383H221.176Z" fill="#6D6E71"/>
<path d="M224.968 35.0383V26.7397H230.713V28.3613H226.626V29.7921H229.002V31.4136H226.626V33.4167H230.851V35.0383H224.968Z" fill="#6D6E71"/>
<path d="M237.463 35.0382L235.984 32.0495H234.315V35.0382H232.657V26.7397H236.512C236.877 26.6986 237.246 26.7365 237.595 26.8509C237.944 26.9652 238.264 27.1532 238.534 27.4023C238.805 27.6514 239.019 27.9558 239.162 28.2949C239.305 28.634 239.374 29 239.364 29.3681C239.411 29.8952 239.281 30.4231 238.993 30.867C238.706 31.3109 238.279 31.6452 237.78 31.8163L239.364 34.9958L237.463 35.0382ZM236.48 28.3506H234.315V30.4703H236.48C237.251 30.4703 237.663 30.1206 237.663 29.4105C237.663 28.7004 237.209 28.3506 236.48 28.3506V28.3506Z" fill="#6D6E71"/>
<path d="M241.223 35.0383V26.7397H242.881V35.0383H241.223Z" fill="#6D6E71"/>
<path d="M249.863 29.1564C249.73 28.8717 249.515 28.6335 249.246 28.4729C248.976 28.3123 248.665 28.2366 248.352 28.2556C247.106 28.2556 246.398 29.3154 246.398 30.884C246.398 32.4525 247.117 33.523 248.363 33.523C248.707 33.5286 249.045 33.4306 249.333 33.2417C249.621 33.0528 249.846 32.7816 249.979 32.4631L251.373 33.3004C251.111 33.8871 250.679 34.3805 250.132 34.7154C249.585 35.0503 248.95 35.211 248.31 35.1763C246.198 35.1763 244.698 33.5124 244.698 30.937C244.698 28.3616 246.208 26.6976 248.373 26.6976C249.004 26.6668 249.63 26.8259 250.17 27.1545C250.71 27.4831 251.14 27.9662 251.405 28.5417L249.863 29.1564Z" fill="#6D6E71"/>
<path d="M258.429 35.0383L257.774 33.1942H254.742L254.098 35.0383H252.324L255.492 26.7397H257.098L260.267 35.0383H258.429ZM256.675 30.0994C256.506 29.6225 256.337 29.1244 256.263 28.8064C256.179 29.1244 256.01 29.6225 255.841 30.0994L255.313 31.615H257.203L256.675 30.0994Z" fill="#6D6E71"/>
<path d="M266.963 35.0383L263.921 30.5128C263.72 30.1948 263.446 29.7815 263.34 29.5695C263.34 29.8769 263.34 30.9261 263.34 31.3818V35.0383H261.703V26.7397H263.287L266.224 31.1275C266.424 31.4348 266.699 31.8482 266.805 32.0601C266.805 31.7528 266.805 30.7141 266.805 30.2478V26.7397H268.442V35.0383H266.963Z" fill="#6D6E71"/>
<path d="M280.102 35.0383V31.9966C280.102 31.5408 280.102 30.481 280.102 30.163C279.986 30.4704 279.733 31.0639 279.522 31.5408L277.842 35.2291L276.163 31.5408C275.952 31.0639 275.698 30.481 275.582 30.163C275.582 30.481 275.582 31.5408 275.582 31.9966V35.0383H273.966V26.7397H275.561L277.293 30.4916C277.504 30.9579 277.747 31.5514 277.853 31.88C277.958 31.5726 278.201 30.9685 278.413 30.4916L280.081 26.7397H281.708V35.0383H280.102Z" fill="#6D6E71"/>
<path d="M283.894 35.0383V26.7397H289.64V28.3613H285.542V29.7921H287.919V31.4136H285.542V33.4167H289.82V35.0383H283.894Z" fill="#6D6E71"/>
<path d="M294.055 35.0383H291.584V26.7397H294.171C296.537 26.7397 298.291 27.8526 298.291 30.8837C298.323 31.4459 298.234 32.0085 298.031 32.5335C297.828 33.0585 297.516 33.5339 297.114 33.9275C296.713 34.3211 296.232 34.6239 295.705 34.8155C295.177 35.0071 294.615 35.0831 294.055 35.0383V35.0383ZM294.119 28.3507H293.284V33.4273H294.108C294.45 33.4665 294.796 33.4275 295.121 33.3134C295.446 33.1993 295.741 33.0129 295.983 32.7682C296.226 32.5235 296.411 32.2269 296.523 31.9006C296.635 31.5742 296.673 31.2266 296.632 30.8837C296.58 29.188 295.861 28.3507 294.119 28.3507V28.3507Z" fill="#6D6E71"/>
<path d="M306.191 35.1761C305.581 35.1967 304.974 35.0697 304.423 34.806C303.871 34.5422 303.391 34.1494 303.022 33.6605L304.216 32.6007C304.476 32.9054 304.801 33.1482 305.166 33.3114C305.532 33.4745 305.929 33.554 306.328 33.544C307.311 33.544 307.775 33.2684 307.775 32.6431C307.775 32.0178 307.49 31.8694 305.927 31.5197C304.364 31.1699 303.339 30.6718 303.339 29.0396C303.339 27.4075 304.67 26.602 306.297 26.602C306.862 26.5897 307.424 26.6997 307.943 26.9247C308.463 27.1496 308.928 27.4842 309.307 27.9056L308.071 29.0714C307.835 28.8039 307.546 28.5892 307.222 28.4413C306.898 28.2934 306.547 28.2156 306.191 28.213C305.304 28.213 305.008 28.5945 305.008 28.9655C305.008 29.3364 305.367 29.6543 306.677 29.9617C307.987 30.2691 309.444 30.7248 309.444 32.5265C309.444 34.1057 308.451 35.1761 306.191 35.1761Z" fill="#6D6E71"/>
<path d="M314.683 32.1025H312.856V35.0382H311.24V26.7397H314.863C315.228 26.6986 315.597 26.7365 315.946 26.8509C316.294 26.9652 316.615 27.1532 316.885 27.4023C317.155 27.6514 317.369 27.9558 317.512 28.2949C317.656 28.634 317.724 29 317.715 29.3681C317.672 31.297 316.394 32.1025 314.683 32.1025ZM314.768 28.3506H312.856V30.4703H314.789C315.56 30.4703 315.972 30.1206 315.972 29.4105C315.972 28.7004 315.465 28.3506 314.768 28.3506Z" fill="#6D6E71"/>
<path d="M323.915 35.0383L323.27 33.1942H320.239L319.584 35.0383H317.789L320.957 26.7397H322.563L325.731 35.0383H323.915ZM322.172 30.0994C322.003 29.6225 321.834 29.1244 321.749 28.8064C321.675 29.1244 321.506 29.6225 321.337 30.0994L320.809 31.615H322.7L322.172 30.0994Z" fill="#6D6E71"/>
<path d="M211.723 46.919L211.068 45.0643H208.036L207.392 46.919H205.618L208.786 38.6099H210.392L213.56 46.919H211.723ZM209.969 41.9802C209.8 41.4926 209.642 40.9945 209.557 40.6872C209.473 40.9945 209.304 41.4926 209.145 41.9802L208.607 43.4533H210.497L209.969 41.9802Z" fill="#6D6E71"/>
<path d="M217.606 47.0462C216.997 47.0637 216.392 46.9364 215.842 46.6749C215.291 46.4134 214.81 46.0249 214.437 45.5413L215.631 44.4814C215.89 44.7881 216.214 45.0329 216.579 45.1979C216.945 45.3629 217.342 45.444 217.743 45.4353C218.725 45.4353 219.179 45.1597 219.179 44.5344C219.179 43.9091 218.905 43.7607 217.342 43.4004C215.778 43.04 214.754 42.5631 214.754 40.9204C214.754 39.2776 216.074 38.4933 217.711 38.4933C218.277 38.4831 218.838 38.5941 219.357 38.8189C219.876 39.0437 220.341 39.3771 220.722 39.7969L219.528 40.9628C219.293 40.6942 219.004 40.4788 218.68 40.3308C218.356 40.1828 218.004 40.1056 217.648 40.1043C216.761 40.1043 216.465 40.4858 216.465 40.8462C216.465 41.3761 216.824 41.5351 218.134 41.853C219.443 42.171 220.901 42.6055 220.901 44.4072C220.859 45.9758 219.866 47.0462 217.606 47.0462Z" fill="#6D6E71"/>
<path d="M225.253 47.0464C224.638 47.076 224.024 46.9578 223.464 46.7016C222.904 46.4453 222.412 46.0584 222.031 45.5732L223.225 44.5133C223.484 44.82 223.808 45.0648 224.174 45.2298C224.539 45.3948 224.937 45.4759 225.337 45.4672C226.32 45.4672 226.774 45.1916 226.774 44.5663C226.774 43.941 226.499 43.7927 224.936 43.4323C223.373 43.072 222.338 42.595 222.338 40.9523C222.338 39.3095 223.668 38.5252 225.306 38.5252C225.871 38.5136 226.433 38.624 226.952 38.8489C227.471 39.0738 227.936 39.408 228.316 39.8289L227.122 40.9947C226.888 40.7251 226.599 40.5089 226.275 40.3608C225.951 40.2127 225.599 40.1361 225.242 40.1362C224.355 40.1362 224.059 40.5177 224.059 40.8781C224.059 41.408 224.408 41.567 225.728 41.8849C227.048 42.2029 228.495 42.6374 228.495 44.4392C228.506 45.9759 227.513 47.0464 225.253 47.0464Z" fill="#6D6E71"/>
<path d="M233.354 47.0461C231.104 47.0461 229.763 45.2868 229.763 42.8067C229.763 40.3267 231.104 38.5674 233.354 38.5674C235.604 38.5674 236.956 40.3161 236.956 42.8067C236.956 45.2974 235.614 47.0461 233.354 47.0461ZM233.354 40.1253C232.023 40.1253 231.463 41.2806 231.463 42.7644C231.463 44.2481 232.023 45.4034 233.354 45.4034C234.685 45.4034 235.255 44.2481 235.255 42.7644C235.255 41.2806 234.695 40.1253 233.354 40.1253Z" fill="#6D6E71"/>
<path d="M243.378 41.0265C243.244 40.7427 243.028 40.5054 242.759 40.3449C242.49 40.1844 242.18 40.1081 241.867 40.1257C240.621 40.1257 239.913 41.1855 239.913 42.7647C239.913 44.3438 240.642 45.4037 241.878 45.4037C242.223 45.4072 242.561 45.3085 242.85 45.12C243.14 44.9314 243.367 44.6615 243.504 44.3438L244.899 45.1705C244.637 45.7572 244.204 46.2506 243.657 46.5855C243.11 46.9204 242.475 47.0811 241.835 47.0464C239.723 47.0464 238.213 45.3825 238.213 42.8071C238.213 40.2316 239.723 38.5677 241.888 38.5677C242.504 38.5248 243.119 38.6634 243.658 38.9666C244.196 39.2697 244.635 39.7242 244.92 40.274L243.378 41.0265Z" fill="#6D6E71"/>
<path d="M246.694 46.919V38.6099H248.352V46.919H246.694Z" fill="#6D6E71"/>
<path d="M256.116 46.919L255.461 45.0643H252.44L251.785 46.919H249.979L253.148 38.6099H254.753L257.922 46.919H256.116ZM254.362 41.9802C254.204 41.4926 254.035 40.9945 253.95 40.6872C253.866 40.9945 253.697 41.4926 253.538 41.9802L253.01 43.4851H254.901L254.362 41.9802Z" fill="#6D6E71"/>
<path d="M261.861 40.2738V46.9402H260.203V40.2738H257.827V38.6099H264.238V40.2738H261.861Z" fill="#6D6E71"/>
<path d="M265.949 46.919V38.6099H267.607V46.919H265.949Z" fill="#6D6E71"/>
<path d="M273.015 47.0461C270.755 47.0461 269.424 45.2868 269.424 42.8067C269.424 40.3267 270.755 38.5674 273.015 38.5674C275.276 38.5674 276.606 40.3161 276.606 42.8067C276.606 45.2974 275.328 47.0461 273.015 47.0461ZM273.015 40.1253C271.684 40.1253 271.125 41.2806 271.125 42.7644C271.125 44.2481 271.684 45.4034 273.015 45.4034C274.346 45.4034 274.906 44.2481 274.906 42.7644C274.906 41.2806 274.357 40.1253 273.015 40.1253Z" fill="#6D6E71"/>
<path d="M283.535 46.919L280.493 42.3935C280.293 42.0861 280.018 41.6728 279.912 41.4608C279.912 41.7682 279.912 42.8068 279.912 43.2732V46.9296H278.275V38.6099H279.859L282.796 42.9976C282.996 43.305 283.271 43.7289 283.377 43.9409C283.377 43.6335 283.377 42.5843 283.377 42.1179V38.6099H285.003V46.919H283.535Z" fill="#6D6E71"/>
<path d="M141.822 59.86C141.822 59.86 163.485 44.0472 199.597 51.9324C235.709 59.8176 311.694 55.5782 324.411 40.0728C321.665 44.9374 285.215 67.7452 206.811 57.4117C190.999 55.61 174.142 46.4848 141.822 59.86Z" fill="#9DC93B"/>
<path d="M143.026 60.9939C143.026 60.9939 164.647 50.7241 186.796 56.2564C205.512 60.9197 271.663 70.1509 314.725 48.668C310.078 51.9853 270.364 75.3653 188.401 59.5737C182.687 58.7788 169.114 53.7234 143.026 60.9939Z" fill="#28AAE2"/>
</g>
<defs>
<clipPath id="clip0_950_20150">
<rect width="325" height="65" fill="white" transform="translate(0.710205)"/>
</clipPath>
</defs>
</svg>
