<svg xmlns="http://www.w3.org/2000/svg" width="32" height="32" viewBox="0 0 32 32"><g class="nc-icon-wrapper" stroke-linecap="square" stroke-linejoin="miter" stroke-width="2" fill="#4d4d4d" stroke="#4d4d4d"><path data-cap="butt" d="M2.618,9.217A15,15,0,0,1,31,16" fill="none" stroke="#4d4d4d" stroke-miterlimit="10" stroke-linecap="butt"/><polyline points="3.617 1.22 2.617 9.22 10.617 8.22" fill="none" stroke="#4d4d4d" stroke-miterlimit="10"/><path data-color="color-2" d="M28.623,24.087A14.881,14.881,0,0,0,30.461,20" fill="none" stroke-miterlimit="10"/><path data-color="color-2" d="M21.228,30.054A15.007,15.007,0,0,0,25.26,27.8" fill="none" stroke-miterlimit="10"/><path data-color="color-2" d="M3.876,24.807a15.063,15.063,0,0,0,2.917,3.018" fill="none" stroke-miterlimit="10"/><path data-color="color-2" d="M11.2,30.2A14.951,14.951,0,0,0,16,31c.106,0,.21-.011.315-.013" fill="none" stroke-miterlimit="10"/><path data-color="color-2" d="M1,16a14.961,14.961,0,0,0,.64,4.326" fill="none" stroke-miterlimit="10"/></g></svg>