<?xml version="1.0" encoding="utf-8"?>
<!-- Generator: Adobe Illustrator 25.2.0, SVG Export Plug-In . SVG Version: 6.00 Build 0)  -->
<svg version="1.1" id="Layer_1" xmlns="http://www.w3.org/2000/svg" xmlns:xlink="http://www.w3.org/1999/xlink" x="0px" y="0px"
	 viewBox="0 0 600 600" style="enable-background:new 0 0 600 600;" xml:space="preserve">
<style type="text/css">
	.st0{fill:#FFFFFF;}
</style>
<g>
	<g>
		<path class="st0" d="M299.5,584.1C142.8,584.1,15.3,456.7,15.3,300S142.8,15.9,299.5,15.9S583.6,143.3,583.6,300
			S456.2,584.1,299.5,584.1z M299.5,17.1C143.5,17.1,16.6,144,16.6,300s126.9,282.9,282.9,282.9S582.3,456,582.3,300
			S455.5,17.1,299.5,17.1z"/>
	</g>
	<g>
		<path class="st0" d="M299.5,540.8c-132.8,0-240.8-108-240.8-240.8s108-240.8,240.8-240.8s240.8,108,240.8,240.8
			S432.3,540.8,299.5,540.8z M299.5,62.4C168.5,62.4,61.9,169,61.9,300c0,131,106.6,237.6,237.6,237.6S537.1,431,537.1,300
			C537.1,169,430.5,62.4,299.5,62.4z"/>
	</g>
	<g>
		<path class="st0" d="M299.5,498.1c-109.2,0-198.1-88.9-198.1-198.1c0-109.2,88.9-198.1,198.1-198.1S497.6,190.8,497.6,300
			C497.6,409.2,408.7,498.1,299.5,498.1z M299.5,108.2c-105.7,0-191.7,86-191.7,191.7c0,105.7,86,191.7,191.7,191.7
			s191.7-86,191.7-191.7C491.2,194.3,405.2,108.2,299.5,108.2z"/>
	</g>
	<g>
		<path class="st0" d="M299.5,455.3c-85.7,0-155.4-69.7-155.4-155.4s69.7-155.4,155.4-155.4S454.8,214.3,454.8,300
			S385.1,455.3,299.5,455.3z M299.5,154.1c-80.4,0-145.9,65.4-145.9,145.9c0,80.4,65.4,145.9,145.9,145.9S445.3,380.4,445.3,300
			C445.3,219.6,379.9,154.1,299.5,154.1z"/>
	</g>
	<g>
		<path class="st0" d="M299.5,412.6c-62.1,0-112.6-50.5-112.6-112.6s50.5-112.6,112.6-112.6S412.1,237.9,412.1,300
			S361.6,412.6,299.5,412.6z M299.5,200c-55.1,0-100,44.9-100,100c0,55.1,44.9,100,100,100c55.1,0,100-44.9,100-100
			C399.5,244.9,354.6,200,299.5,200z"/>
	</g>
	<g>
		<circle class="st0" cx="299.5" cy="300" r="62"/>
	</g>
</g>
</svg>
