<?xml version="1.0" encoding="utf-8"?>
<!-- Generator: Adobe Illustrator 26.0.3, SVG Export Plug-In . SVG Version: 6.00 Build 0)  -->
<svg version="1.1" id="Layer_1" xmlns="http://www.w3.org/2000/svg" xmlns:xlink="http://www.w3.org/1999/xlink" x="0px" y="0px"
	 viewBox="0 0 1526.5 598.1" style="enable-background:new 0 0 1526.5 598.1;" xml:space="preserve">
<style type="text/css">
	.st0{fill:#33497A;}
	.st1{fill:#FFFFFF;}
	.st2{fill:#98A3C5;}
</style>
<rect x="24.9" y="24.6" class="st0" width="590.9" height="549.4"/>
<path class="st1" d="M170.2,23.2v551.2H448c0,0-18.3-64.2,26.8-76.9c0,0,106.5-9,79.7-80.3c0,0-112.1-187.7-113.5-215.5
	c0,0-4.9-30.6,7-66.6c0,0,17.6-22.9,4.2-111.9L170.2,23.2z"/>
<path class="st2" d="M23.5,23.3v551.2h277.8c0,0-18.3-64.2,26.8-76.9c0,0,106.5-9,79.7-80.3c0,0-112.1-187.7-113.5-215.5
	c0,0-4.9-30.6,7.1-66.6c0,0,17.6-22.9,4.2-111.9H23.5z"/>
<path class="st0" d="M22.1,23.3v551.2h135.4c0,0-18.3-64.2,26.8-76.9c0,0,106.5-9,79.7-80.3c0,0-112.1-187.7-113.5-215.5
	c0,0-4.9-30.6,7.1-66.6c0,0,17.6-22.9,4.2-111.9H22.1z"/>
<g>
	<path class="st0" d="M747.6,92.1c-0.1-6-0.8-10.9-2-14.9c-1.3-4-3.3-6.9-6.2-8.9c-2.9-2-6.8-2.9-11.8-2.8h-11.3l-0.2,81.4
		c0,2.8,0,5.4-0.1,7.6c-0.1,2.2-0.2,4-0.4,5.4c2-0.2,4.1-0.3,6.5-0.4c2.3-0.1,4.5-0.1,6.3-0.2v8.6h-39.8V161
		c3.4-0.2,5.9-0.9,7.4-2.2c1.5-1.3,2.4-3.2,2.8-5.7c0.4-2.6,0.6-5.7,0.6-9.5v-78l-13.2,0.2c-6.4,0-11,2.1-13.9,6.4
		c-2.9,4.3-4.4,10.9-4.4,19.9h-7.4l0.9-33.8H754l0.9,33.8H747.6z"/>
	<path class="st0" d="M810.1,161.3c3.1,0,5.3-0.7,6.7-2.2c1.3-1.5,2.1-3.5,2.3-6.1c0.3-2.6,0.4-5.6,0.4-9.1l-0.2-21.9
		c0-8.2-1.3-14.4-3.8-18.6c-2.6-4.1-6.7-6.1-12.3-6c-3.4,0.1-6.8,0.9-10.1,2.5c-3.3,1.6-6,3.6-8.2,6v42.6c0,1.9-0.1,3.8-0.2,5.7
		c-0.1,1.9-0.3,3.9-0.5,5.9c1.7-0.1,3.4-0.2,5.1-0.2c1.7-0.1,3.3-0.1,4.8-0.2v8.3h-34.9v-6.6c3.1,0,5.3-0.7,6.6-2.2
		c1.3-1.5,2-3.5,2.3-6.1c0.3-2.6,0.5-5.6,0.5-9.1V73.2c0-1.8,0-3.6,0.1-5.4c0.1-1.8,0.2-3.8,0.4-5.9c-1.8,0.1-3.7,0.2-5.6,0.2
		c-2,0.1-3.8,0.1-5.5,0.2V54c4.7,0,8.5-0.2,11.3-0.7s5-1,6.5-1.6c1.5-0.6,2.6-1.3,3.4-2h5.8V97c2.3-1.9,4.9-3.5,7.7-5
		c2.8-1.5,5.7-2.6,8.7-3.5c3-0.9,5.8-1.3,8.4-1.3c9.3,0,15.9,2.8,20,8.5c4,5.6,6.1,14.5,6.2,26.5v26.5c0,1.9,0,3.8-0.1,5.7
		c-0.1,1.9-0.2,3.9-0.5,5.9c1.7-0.1,3.4-0.2,5.2-0.2c1.8-0.1,3.4-0.1,4.9-0.2v8.3h-35.1V161.3z"/>
	<path class="st0" d="M889.6,170.4c-7.3,0-13.9-1.7-19.7-5.1c-5.8-3.4-10.4-8.2-13.7-14.4c-3.3-6.2-5-13.5-5-22
		c0-7.3,1.6-14.1,4.9-20.5c3.3-6.4,7.9-11.5,13.9-15.4s12.8-5.9,20.7-5.9c4.4,0,8.5,0.7,12.5,2c3.9,1.4,7.4,3.5,10.5,6.3
		c3.1,2.9,5.5,6.6,7.3,11.1c1.8,4.5,2.7,10,2.7,16.5l-53.9,0.9c0,7.1,0.8,13.4,2.4,18.9c1.6,5.5,4.3,9.8,7.9,12.8
		c3.7,3,8.4,4.5,14.3,4.5c2.8,0,5.8-0.5,9-1.5c3.2-1,6.2-2.4,9.1-4.3c2.9-1.9,5.3-4.1,7.3-6.7l4.9,4.2c-3.1,4.7-6.7,8.4-10.8,11
		c-4.1,2.7-8.2,4.5-12.4,5.6C897.1,169.9,893.2,170.4,889.6,170.4z M870.4,115.9h36.2c0-4-0.5-7.5-1.6-10.7
		c-1.1-3.2-2.8-5.7-5.1-7.6c-2.3-1.9-5.2-2.8-8.8-2.8c-5.5,0-10.1,1.8-13.6,5.2C873.9,103.5,871.5,108.8,870.4,115.9z"/>
	<path class="st0" d="M665.9,355.8v-6.9c3.4-0.2,5.9-0.9,7.4-2.2c1.5-1.3,2.5-3.1,2.9-5.6c0.4-2.5,0.6-5.7,0.6-9.6v-65.1
		c0-2.3,0.1-4.5,0.2-6.7c0.1-2.1,0.2-4,0.3-5.6c-1.8,0.1-3.7,0.2-5.8,0.3c-2.1,0.1-4,0.2-5.6,0.3v-8.6c6.4-0.1,12.8-0.2,19.3-0.2
		c6.5-0.1,13,0,19.6,0.1c9.8,0,17.9,1.1,24.3,3.4c6.4,2.2,11.1,5.6,14.3,9.9c3.2,4.4,4.7,9.9,4.6,16.6c0.1,4.2-0.7,8.3-2.5,12.4
		c-1.8,4.1-4.8,7.8-8.9,11c-4.2,3.2-9.9,5.7-17.2,7.4c2.1,1.3,4,3,5.6,5.2c1.7,2.2,3.4,4.6,5.2,7.4l9.6,14.7c2,3.1,3.8,5.8,5.5,8
		c1.7,2.2,3.5,3.9,5.6,5.1c2.1,1.2,4.6,1.8,7.5,1.8v6.9h-21.8c-2.7-2.3-5-4.8-7-7.4c-1.9-2.7-4-5.7-6.2-9l-10.8-17.5
		c-1.4-2.1-2.8-4.3-4.3-6.7c-1.5-2.4-3.2-4.4-4.9-6.1c-1.7,0-3.3,0-4.9,0c-1.6,0-3.3,0-4.9,0v25.8c0,2.8,0,5.4-0.1,7.6
		c-0.1,2.2-0.2,4-0.4,5.4c1.3-0.1,2.6-0.2,4-0.2c1.4-0.1,2.8-0.1,4.2-0.2c1.4-0.1,2.6-0.2,3.7-0.2v8.6H665.9z M702.5,301.3
		c5.7-0.1,10.6-1,14.7-2.7c4.1-1.7,7.2-4.4,9.4-8c2.2-3.6,3.3-8.3,3.3-14c0-4.3-0.6-7.9-1.9-10.8c-1.3-2.9-3-5.3-5.3-7.1
		c-2.3-1.8-5-3.1-8.2-3.9c-3.2-0.8-6.6-1.2-10.3-1.2c-3.3,0-5.8,0.6-7.3,1.9c-1.5,1.3-2.5,3.1-2.9,5.5c-0.4,2.4-0.6,5.5-0.6,9.2
		v30.7c1.6,0.1,3.1,0.2,4.5,0.4C699.3,301.4,700.8,301.4,702.5,301.3z"/>
	<path class="st0" d="M810.7,349.2c3.1,0,5.3-0.7,6.7-2.2c1.3-1.5,2.1-3.5,2.3-6.1c0.3-2.6,0.4-5.6,0.4-9.1l-0.2-21.9
		c0-8.2-1.3-14.4-3.8-18.6c-2.6-4.1-6.7-6.1-12.3-6c-3.4,0.1-6.8,0.9-10.1,2.5c-3.3,1.6-6,3.6-8.2,6v42.6c0,1.9-0.1,3.8-0.2,5.7
		c-0.1,1.9-0.3,3.9-0.5,5.9c1.7-0.1,3.4-0.2,5.1-0.2c1.7-0.1,3.3-0.1,4.8-0.2v8.3h-34.9v-6.6c3.1,0,5.3-0.7,6.6-2.2
		c1.3-1.5,2-3.5,2.3-6.1c0.3-2.6,0.5-5.6,0.5-9.1v-70.8c0-1.8,0-3.6,0.1-5.4c0.1-1.8,0.2-3.8,0.4-5.9c-1.8,0.1-3.7,0.2-5.6,0.2
		c-2,0.1-3.8,0.1-5.5,0.2V242c4.7,0,8.5-0.2,11.3-0.7s5-1,6.5-1.6c1.5-0.6,2.6-1.3,3.4-2h5.8v47.3c2.3-1.9,4.9-3.5,7.7-5
		c2.8-1.5,5.7-2.6,8.7-3.5c3-0.9,5.8-1.3,8.4-1.3c9.3,0,15.9,2.8,20,8.5c4,5.6,6.1,14.5,6.2,26.5v26.5c0,1.9,0,3.8-0.1,5.7
		c-0.1,1.9-0.2,3.9-0.5,5.9c1.7-0.1,3.4-0.2,5.2-0.2c1.8-0.1,3.4-0.1,4.9-0.2v8.3h-35.1V349.2z"/>
	<path class="st0" d="M852.7,349.2c3.1,0,5.3-0.7,6.6-2.2c1.3-1.5,2-3.5,2.3-6.1c0.3-2.6,0.4-5.6,0.4-9.1v-32.4
		c0-1.8,0.1-3.6,0.2-5.4c0.1-1.8,0.3-3.8,0.5-5.9c-1.8,0.1-3.7,0.2-5.6,0.2c-2,0.1-3.8,0.1-5.5,0.2v-8.3c4.7,0,8.4-0.2,11.2-0.7
		c2.8-0.5,4.9-1,6.4-1.6c1.5-0.6,2.6-1.3,3.4-2h6v60.4c0,1.9-0.1,3.8-0.2,5.7c-0.1,1.9-0.3,3.9-0.5,5.9c1.7-0.1,3.4-0.2,5.1-0.2
		c1.7-0.1,3.3-0.1,4.8-0.2v8.3h-34.9V349.2z M869.4,261.5c-2.7,0-5-1-6.9-3.1c-1.9-2-2.8-4.5-2.8-7.4c0-2.9,1-5.4,3-7.4
		c2-2,4.2-3.1,6.7-3.1c2.7,0,5,1,6.8,3.1c1.8,2,2.7,4.5,2.7,7.4c0,2.9-0.9,5.4-2.7,7.4C874.4,260.5,872.2,261.5,869.4,261.5z"/>
	<path class="st0" d="M895.1,355.8v-6.6c3.1,0,5.3-0.7,6.6-2.2c1.3-1.5,2-3.5,2.3-6.1c0.3-2.6,0.4-5.6,0.4-9.1l0.2-32.6
		c0-1.7,0-3.5,0.1-5.4c0.1-1.9,0.2-3.8,0.5-5.7c-1.9,0.1-3.8,0.2-5.7,0.2c-1.9,0.1-3.7,0.1-5.4,0.2v-8.3c4.7,0,8.4-0.2,11-0.7
		c2.7-0.5,4.7-1,6.1-1.6c1.4-0.6,2.5-1.3,3.2-2h5.6c0.1,0.9,0.2,1.8,0.2,2.7c0.1,0.8,0.1,1.7,0.2,2.7c0.1,0.9,0.1,2.1,0.2,3.6
		c2.3-1.9,4.8-3.5,7.5-5c2.7-1.5,5.6-2.6,8.5-3.5c3-0.9,5.8-1.3,8.5-1.3c9.3,0,16,2.8,20.1,8.5c4.1,5.6,6.2,14.5,6.2,26.5v26.5
		c0,1.9-0.1,3.8-0.2,5.7c-0.1,1.9-0.3,3.9-0.5,5.9c1.7-0.1,3.4-0.2,5.1-0.2c1.7-0.1,3.3-0.1,4.8-0.2v8.3h-34.9v-6.6
		c3.1,0,5.3-0.7,6.6-2.2c1.3-1.5,2-3.5,2.3-6.1c0.3-2.6,0.4-5.6,0.4-9.1v-21.9c-0.1-8.2-1.4-14.5-4-18.6c-2.6-4.2-6.7-6.2-12.3-6.1
		c-3.3,0-6.6,0.8-9.9,2.5c-3.2,1.7-6,3.7-8.1,6.1c0,1,0,2.2,0,3.4c0,1.2,0,2.4,0,3.7v35.5c0,1.9-0.1,3.8-0.2,5.7
		c-0.1,1.9-0.3,3.9-0.5,5.9c1.7-0.1,3.4-0.2,5.1-0.2c1.7-0.1,3.3-0.1,4.8-0.2v8.3H895.1z"/>
	<path class="st0" d="M1026.5,358.3c-7.4,0-14.1-1.7-20-5c-6-3.3-10.7-8-14.2-14c-3.5-6-5.2-12.9-5.2-20.7c0-8.5,1.7-15.9,5.2-22.5
		c3.5-6.5,8.2-11.7,14.2-15.4c6-3.8,12.6-5.6,19.9-5.6c7.4,0,14.1,1.7,20,5.1c6,3.4,10.7,8.1,14.2,14.1c3.5,6,5.2,12.9,5.2,20.7
		c0,8.2-1.7,15.7-5.2,22.2s-8.1,11.7-14,15.5C1040.7,356.4,1034,358.3,1026.5,358.3z M1027.6,350.5c5-0.1,9-1.7,11.8-4.7
		c2.9-3,4.9-6.9,6.2-11.7c1.3-4.8,1.9-9.7,1.9-14.8c0-4.5-0.4-8.9-1.2-13.2c-0.8-4.3-2-8.3-3.7-11.8c-1.7-3.5-3.9-6.4-6.6-8.5
		c-2.7-2.1-6-3.2-9.9-3.1c-4.9,0-8.9,1.5-12,4.5c-3.1,3-5.3,6.9-6.7,11.7c-1.4,4.8-2.1,9.8-2.1,15.1c0,6.2,0.8,12,2.3,17.5
		c1.6,5.5,4,10.1,7.3,13.6C1018.3,348.7,1022.5,350.5,1027.6,350.5z"/>
	<path class="st0" d="M1073.2,395.7v-6.6c3.1,0,5.3-0.7,6.6-2.2c1.3-1.5,2-3.5,2.3-6.1c0.3-2.6,0.4-5.6,0.4-9.1l0.2-72.5
		c0-1.7,0.1-3.5,0.2-5.4c0.1-1.9,0.3-3.8,0.5-5.7c-1.8,0.1-3.7,0.2-5.6,0.2c-2,0.1-3.8,0.1-5.5,0.2v-8.3c4.7,0,8.4-0.2,11-0.7
		c2.7-0.5,4.7-1,6.1-1.6c1.4-0.6,2.5-1.3,3.2-2h5.6c0.1,1,0.2,2.3,0.3,3.8c0.1,1.5,0.2,2.9,0.3,4.4c3.3-2.9,7-5.2,11.1-6.7
		c4.1-1.6,8.1-2.3,12.2-2.3c6.1,0,11.6,1.6,16.7,4.8c5.1,3.2,9.1,7.7,12.2,13.5c3.1,5.8,4.6,12.8,4.6,20.8c0,8.7-1.8,16.3-5.3,23
		c-3.6,6.7-8.3,11.9-14.3,15.6c-6,3.7-12.7,5.6-20,5.6c-3.3,0-6.4-0.4-9.2-1.2c-2.8-0.8-5.5-1.9-8-3.2v22.4c0,1.9,0,3.8-0.1,5.7
		c-0.1,1.9-0.2,3.9-0.4,5.9c1.7-0.1,3.4-0.2,5.1-0.2c1.7-0.1,3.3-0.1,4.8-0.2v8.3H1073.2z M1114.8,350.2c5,0,9.2-1.5,12.4-4.5
		c3.3-3,5.7-7,7.4-12.1c1.6-5.1,2.4-10.8,2.4-17.1c0-5.3-0.7-10.4-2.2-15.3c-1.5-4.9-3.8-8.8-7-11.9c-3.2-3.1-7.3-4.6-12.5-4.5
		c-3.2,0-6.3,0.8-9.2,2.3c-2.9,1.6-5.4,3.5-7.4,5.8c0,1.4,0,2.8,0.1,4.4c0.1,1.6,0.1,3.5,0.1,5.9c0,2.3,0,5.3,0,8.9
		c0,3.6,0,8.1-0.1,13.5c-0.1,5.4-0.1,11.9-0.1,19.5c2.1,1.6,4.5,2.8,7.3,3.8C1108.9,349.9,1111.8,350.3,1114.8,350.2z"/>
	<path class="st0" d="M1162.3,349.2c3.1,0,5.3-0.7,6.6-2.2c1.3-1.5,2-3.5,2.3-6.1c0.3-2.6,0.4-5.6,0.4-9.1v-70.8
		c0-1.8,0-3.6,0.1-5.4c0.1-1.8,0.2-3.8,0.4-5.9c-1.8,0.1-3.7,0.2-5.6,0.2c-2,0.1-3.8,0.1-5.3,0.2V242c4.7,0,8.4-0.2,11.2-0.7
		c2.8-0.5,4.9-1,6.4-1.6c1.5-0.6,2.6-1.3,3.4-2h6v98.8c0,1.9-0.1,3.8-0.2,5.7c-0.1,1.9-0.3,3.9-0.5,5.9c1.7-0.1,3.4-0.2,5.1-0.2
		c1.7-0.1,3.3-0.1,4.8-0.2v8.3h-34.9V349.2z"/>
	<path class="st0" d="M1251.1,355.8c-0.2-1.7-0.4-3.1-0.5-4.4c-0.1-1.3-0.3-2.6-0.5-3.9c-3.5,3.6-7.4,6.2-11.4,8.1
		c-4.1,1.8-8.3,2.7-12.7,2.7c-7.5,0-13.2-1.9-17-5.6c-3.8-3.7-5.7-8.3-5.7-13.9c0-4.8,1.4-9,4.2-12.5c2.8-3.5,6.5-6.4,11.1-8.7
		c4.6-2.2,9.6-3.9,15-5c5.4-1.1,10.8-1.6,16-1.6v-9.2c0-3.3-0.3-6.4-0.9-9.3c-0.6-2.9-1.9-5.2-3.8-7c-1.9-1.8-4.9-2.7-9-2.7
		c-2.7-0.1-5.4,0.4-8.1,1.5c-2.7,1.1-4.8,2.9-6.3,5.4c0.8,0.8,1.4,1.8,1.6,2.9c0.3,1.1,0.4,2.1,0.4,3.1c0,1.5-0.6,3.1-1.9,4.9
		c-1.3,1.8-3.4,2.7-6.4,2.6c-2.5,0-4.4-0.9-5.7-2.6c-1.3-1.7-2-3.7-2-6c0-3.8,1.4-7.1,4.2-10c2.8-2.9,6.5-5.2,11.4-6.9
		c4.8-1.7,10.2-2.5,16.1-2.5c9,0,15.7,2.3,20.1,7c4.4,4.7,6.7,12.1,6.7,22.2c0,3.8,0,7.4,0,10.8s0,6.9-0.1,10.3
		c-0.1,3.4-0.1,7.1-0.1,11c0,1.6-0.1,3.3-0.2,5.3c-0.1,2-0.3,4.1-0.5,6.3c1.8-0.1,3.6-0.2,5.5-0.3c1.9-0.1,3.7-0.2,5.3-0.2v8.3
		H1251.1z M1249.7,318.2c-3.3,0.2-6.8,0.7-10.3,1.4c-3.5,0.7-6.7,1.8-9.5,3.3c-2.8,1.5-5.1,3.3-6.8,5.6c-1.7,2.3-2.6,5.1-2.6,8.3
		c0.2,3.5,1.4,6.2,3.5,7.8c2.1,1.7,4.7,2.5,7.6,2.5c3.7,0,6.9-0.7,9.7-2.1c2.8-1.4,5.6-3.4,8.3-5.9c-0.1-1.1-0.2-2.3-0.2-3.5
		c0-1.2,0-2.5,0-3.8c0-0.9,0-2.7,0.1-5.2C1249.6,324.1,1249.7,321.3,1249.7,318.2z"/>
	<path class="st0" d="M1315.6,358.3c-4.9,0-9.4-0.7-13.6-2c-4.2-1.3-7.5-2.8-10-4.6l0.5,5.2h-8.3l-0.8-26.9h6.6
		c0.2,3.9,1.4,7.4,3.6,10.5s5,5.6,8.5,7.4c3.5,1.8,7.3,2.7,11.4,2.7c2.4,0,4.8-0.4,7-1.2c2.3-0.8,4.2-2,5.8-3.6
		c1.6-1.6,2.3-3.6,2.3-6c0-2.6-0.8-4.8-2.4-6.5c-1.6-1.7-3.8-3.3-6.6-4.6c-2.8-1.4-5.9-2.7-9.5-4.1c-3.1-1.3-6.3-2.6-9.5-3.9
		c-3.2-1.4-6.1-3-8.8-4.9c-2.7-1.9-4.9-4.2-6.4-7c-1.6-2.8-2.3-6.2-2.3-10.3c0-2.4,0.5-5,1.4-7.8c0.9-2.8,2.5-5.3,4.5-7.7
		c2.1-2.3,4.9-4.3,8.5-5.8c3.5-1.5,7.9-2.3,13.2-2.3c2.8,0,6,0.5,9.5,1.4c3.5,0.9,6.8,2.6,9.8,4.9l-0.2-5.5h8.3v27.6h-6.7
		c-0.3-3.7-1.3-7-2.9-10.2c-1.6-3.1-3.9-5.7-6.8-7.7c-2.9-2-6.5-3-10.6-3c-4.1,0-7.4,1-9.9,3.1c-2.6,2-3.8,4.6-3.8,7.6
		c0,3,1,5.5,2.9,7.4c1.9,1.9,4.5,3.5,7.6,4.9c3.1,1.4,6.5,2.7,10.2,4.1c4.4,1.8,8.5,3.7,12.4,5.8c3.9,2.1,7,4.7,9.4,7.8
		c2.4,3.1,3.6,7.1,3.6,11.9c0,5.2-1.3,9.6-4,13.1c-2.7,3.5-6.1,6.1-10.3,7.8C1324.7,357.5,1320.3,358.3,1315.6,358.3z"/>
	<path class="st0" d="M1381.8,358.3c-2.6,0-5.2-0.3-7.8-1c-2.6-0.7-5-2-7.3-4.1c-2.2-2-4-5-5.2-8.8c-1.3-3.9-1.9-9-1.9-15.3
		l0.3-42.8h-11.6v-8.8c2.8-0.1,5.7-1.1,8.6-3.1c2.9-2,5.5-4.6,7.7-8c2.2-3.3,3.7-6.9,4.5-10.8h7.4v21.9h24.1v8.1l-24.1,0.3
		l-0.3,41.8c0,4,0.3,7.4,1,10.4c0.7,3,1.8,5.3,3.4,6.9c1.6,1.6,3.8,2.4,6.7,2.4c2.4,0,4.9-0.7,7.4-2.2c2.6-1.5,5-3.9,7.3-7.2
		l5.3,4.7c-2.5,3.7-5,6.5-7.5,8.6c-2.5,2.1-4.9,3.6-7.2,4.6c-2.3,1-4.4,1.6-6.3,1.9C1384.5,358.2,1383,358.3,1381.8,358.3z"/>
	<path class="st0" d="M1423.8,398.3c-3.4,0-6.4-0.9-8.8-2.7c-2.5-1.8-3.7-4.5-3.7-7.9c0-2.2,0.7-4.2,2.1-6c1.4-1.8,3.3-2.7,5.6-2.7
		c2.5-0.1,4.3,0.7,5.4,2.3c1.1,1.7,1.6,3.4,1.6,5.2c0,0.3,0,0.6,0,0.9s-0.1,0.7-0.2,1.1c0.3,0.2,0.8,0.3,1.4,0.2
		c1.1-0.1,2.4-0.7,3.8-1.9c1.4-1.2,2.6-2.8,3.8-4.9c1.3-2.3,2.7-5.5,4.2-9.6s3.3-8.8,5.2-14.1l-24.6-51.4
		c-2.8-5.8-4.8-10.4-5.9-13.7c-1.1-3.3-1.8-5.9-2.1-7.8l-7.5,0.3v-8.3h34.6v6.4h-0.3c-4.3,0.4-6.6,2-7,4.9
		c-0.4,2.8,0.6,6.7,2.9,11.6l17.2,37.9c2-5.3,4-11.1,6-17.4c2-6.3,4.2-12.7,6.3-19.3c0.7-2,1.5-4.1,2.3-6.3c0.8-2.2,1.6-4.3,2.5-6.2
		c0.9-1.9,1.7-3.2,2.6-3.9l-10.2,0.6v-8.3h25.7v6.4c-3.7,1.3-6.5,3.6-8.5,6.9c-2,3.3-4,7.6-5.9,12.7l-19.6,55.1
		c-3,8.7-5.8,15.9-8.5,21.8c-2.6,5.9-5.5,10.3-8.7,13.3C1432.4,396.8,1428.5,398.3,1423.8,398.3z"/>
	<path class="st0" d="M728,467.9c-0.5-5.3-1.9-10.1-4.1-14.4c-2.2-4.3-5.2-7.7-9.1-10.3c-3.9-2.6-8.7-3.8-14.4-3.7
		c-5.8,0-10.5,1.6-13.9,4.9c-3.4,3.2-5.2,7.2-5.2,11.7c0,4.1,1.1,7.5,3.4,10.3c2.3,2.8,5.4,5.2,9.3,7.4c3.9,2.2,8.3,4.4,13.2,6.6
		c4,1.7,8,3.5,12.1,5.6c4.1,2.1,7.8,4.5,11.1,7.1c3.3,2.7,6,5.8,8,9.6c2,3.7,3,8.1,3,13.1c0,5.8-1.5,11.1-4.5,15.7
		c-3,4.6-7.3,8.2-12.9,10.8c-5.6,2.6-12.3,3.9-20.3,3.9c-4.5,0-9.2-0.7-14.2-2c-5-1.4-9.5-3.3-13.5-5.8l0.8,6.6h-9.6l-0.6-34.5h7.5
		c0.8,9.1,4.1,15.9,9.8,20.6c5.7,4.6,12.5,7,20.4,7c4,0,7.6-0.7,10.8-2.2c3.2-1.5,5.8-3.5,7.7-6.3c1.9-2.7,2.8-5.9,2.8-9.6
		c0-4.3-1.3-7.9-3.8-10.8c-2.6-2.9-5.8-5.4-9.7-7.5c-3.9-2.1-8-4.1-12.3-6c-4.3-1.9-8.4-3.9-12.4-6c-4-2.1-7.6-4.5-10.9-7.2
		c-3.2-2.7-5.8-5.9-7.7-9.6c-1.9-3.7-2.8-8.1-2.8-13.1c0-2.9,0.5-6,1.6-9.2c1-3.2,2.8-6.3,5.3-9.2c2.5-2.9,5.9-5.3,10.3-7.1
		c4.3-1.8,9.8-2.7,16.4-2.7c4,0,8.4,0.6,13.4,1.7c5,1.2,9.5,3.2,13.5,6.1l-0.6-6.6h9.4v35.1H728z"/>
	<path class="st0" d="M789.4,546.2c-7.4,0-14.1-1.7-20-5c-6-3.3-10.7-8-14.2-14c-3.5-6-5.2-12.9-5.2-20.7c0-8.5,1.7-15.9,5.2-22.5
		c3.5-6.5,8.2-11.7,14.2-15.4c6-3.8,12.6-5.6,19.9-5.6c7.4,0,14.1,1.7,20,5.1c6,3.4,10.7,8.1,14.2,14.1c3.5,6,5.2,12.9,5.2,20.7
		c0,8.2-1.7,15.7-5.2,22.2c-3.4,6.6-8.1,11.7-14,15.5C803.6,544.4,796.9,546.2,789.4,546.2z M790.5,538.4c5-0.1,9-1.7,11.8-4.7
		c2.9-3,4.9-6.9,6.2-11.7c1.3-4.8,1.9-9.7,1.9-14.8c0-4.5-0.4-8.9-1.2-13.2c-0.8-4.3-2-8.3-3.7-11.8c-1.7-3.5-3.9-6.4-6.6-8.5
		c-2.7-2.1-6-3.2-9.9-3.1c-4.9,0-8.9,1.5-12,4.5c-3.1,3-5.3,6.9-6.7,11.7c-1.4,4.8-2.1,9.8-2.1,15.1c0,6.2,0.8,12,2.3,17.5
		c1.6,5.5,4,10.1,7.3,13.6C781.2,536.6,785.4,538.4,790.5,538.4z"/>
	<path class="st0" d="M875.2,546.2c-7,0-13.4-1.6-19.3-4.8c-5.8-3.2-10.5-7.8-14-13.7c-3.5-6-5.2-13.2-5.2-21.6c0-5.6,1-11,3-16.2
		c2-5.2,4.8-9.8,8.4-13.9s7.9-7.3,12.8-9.6c5-2.3,10.5-3.5,16.5-3.5c6.2,0,11.4,0.9,15.8,2.8c4.4,1.9,7.8,4.3,10.1,7.4
		c2.3,3,3.5,6.3,3.5,9.9c0,2.5-0.7,4.7-2.2,6.6c-1.5,1.9-3.5,2.8-6.3,2.8c-3,0.1-5.2-0.8-6.4-2.7c-1.3-1.9-1.9-3.7-1.9-5.4
		c0-0.9,0.2-2,0.5-3.2c0.3-1.2,0.9-2.3,1.7-3.2c-0.8-2.2-2.2-3.8-4.1-4.9c-1.9-1-3.8-1.7-5.8-2c-2-0.3-3.7-0.5-5-0.5
		c-6.4,0.1-11.7,2.8-16.1,8.2c-4.3,5.4-6.5,13.1-6.5,23.3c0,6.5,1,12.3,2.9,17.4c1.9,5.1,4.8,9.2,8.5,12.2c3.8,3,8.2,4.6,13.5,4.7
		c4.7,0,9.2-1.2,13.6-3.7c4.4-2.5,7.9-5.6,10.6-9.3l5,4.4c-3,4.7-6.5,8.4-10.4,11.1c-3.9,2.7-7.9,4.6-11.9,5.8
		C882.7,545.7,878.9,546.2,875.2,546.2z"/>
	<path class="st0" d="M916.1,537.2c3.1,0,5.3-0.7,6.6-2.2c1.3-1.5,2-3.5,2.3-6.1c0.3-2.6,0.4-5.6,0.4-9.1v-32.4
		c0-1.8,0.1-3.6,0.2-5.4c0.1-1.8,0.3-3.8,0.5-5.9c-1.8,0.1-3.7,0.2-5.6,0.2c-2,0.1-3.8,0.1-5.5,0.2v-8.3c4.7,0,8.4-0.2,11.2-0.7
		c2.8-0.5,4.9-1,6.4-1.6c1.5-0.6,2.6-1.3,3.4-2h6v60.4c0,1.9-0.1,3.8-0.2,5.7c-0.1,1.9-0.3,3.9-0.5,5.9c1.7-0.1,3.4-0.2,5.1-0.2
		c1.7-0.1,3.3-0.1,4.8-0.2v8.3h-34.9V537.2z M932.9,449.5c-2.7,0-5-1-6.9-3.1c-1.9-2-2.8-4.5-2.8-7.4c0-2.9,1-5.4,3-7.4
		c2-2,4.2-3.1,6.7-3.1c2.7,0,5,1,6.8,3.1c1.8,2,2.7,4.5,2.7,7.4c0,2.9-0.9,5.4-2.7,7.4C937.9,448.4,935.6,449.5,932.9,449.5z"/>
	<path class="st0" d="M996.1,546.2c-7.3,0-13.9-1.7-19.7-5.1s-10.4-8.2-13.7-14.4c-3.3-6.2-5-13.5-5-22c0-7.3,1.6-14.1,4.9-20.5
		c3.3-6.4,7.9-11.5,13.9-15.4c6-3.9,12.8-5.9,20.7-5.9c4.4,0,8.5,0.7,12.5,2c3.9,1.4,7.4,3.5,10.5,6.3c3.1,2.9,5.5,6.6,7.3,11.1
		c1.8,4.5,2.7,10,2.7,16.5l-53.9,0.9c0,7.1,0.8,13.4,2.4,18.9c1.6,5.5,4.3,9.8,7.9,12.8c3.7,3,8.4,4.5,14.3,4.5c2.8,0,5.8-0.5,9-1.5
		c3.2-1,6.2-2.4,9.1-4.3c2.9-1.9,5.3-4.1,7.3-6.7l4.9,4.2c-3.1,4.7-6.7,8.4-10.8,11c-4.1,2.7-8.2,4.5-12.4,5.6
		C1003.6,545.7,999.7,546.2,996.1,546.2z M976.9,491.7h36.2c0-4-0.5-7.5-1.6-10.7c-1.1-3.2-2.8-5.7-5.1-7.6
		c-2.3-1.9-5.2-2.8-8.8-2.8c-5.5,0-10.1,1.8-13.6,5.2C980.4,479.3,978,484.6,976.9,491.7z"/>
	<path class="st0" d="M1068.5,546.2c-2.6,0-5.2-0.3-7.8-1c-2.6-0.7-5-2-7.3-4.1c-2.2-2-4-5-5.2-8.8c-1.3-3.9-1.9-9-1.9-15.3
		l0.3-42.8H1035v-8.8c2.8-0.1,5.7-1.1,8.6-3.1c2.9-2,5.5-4.6,7.7-8c2.2-3.3,3.7-6.9,4.5-10.8h7.4v21.9h24.1v8.1l-24.1,0.3l-0.3,41.8
		c0,4,0.3,7.4,1,10.4c0.7,3,1.8,5.3,3.4,6.9c1.6,1.6,3.8,2.4,6.7,2.4c2.4,0,4.9-0.7,7.4-2.2c2.6-1.5,5-3.9,7.3-7.2l5.3,4.7
		c-2.5,3.7-5,6.5-7.5,8.6c-2.5,2.1-4.9,3.6-7.2,4.6c-2.3,1-4.4,1.6-6.3,1.9C1071.1,546.1,1069.6,546.2,1068.5,546.2z"/>
	<path class="st0" d="M1110.4,586.2c-3.4,0-6.4-0.9-8.8-2.7c-2.5-1.8-3.7-4.5-3.7-7.9c0-2.2,0.7-4.2,2.1-6c1.4-1.8,3.3-2.7,5.6-2.7
		c2.5-0.1,4.3,0.7,5.4,2.3c1.1,1.7,1.6,3.4,1.6,5.2c0,0.3,0,0.6,0,0.9s-0.1,0.7-0.2,1.1c0.3,0.2,0.8,0.3,1.4,0.2
		c1.1-0.1,2.4-0.7,3.8-1.9c1.4-1.2,2.6-2.8,3.8-4.9c1.3-2.3,2.7-5.5,4.2-9.6s3.3-8.8,5.2-14.1l-24.6-51.4
		c-2.8-5.8-4.8-10.4-5.9-13.7c-1.1-3.3-1.8-5.9-2.1-7.8l-7.5,0.3v-8.3h34.6v6.4h-0.3c-4.3,0.4-6.6,2-7,4.9
		c-0.4,2.8,0.6,6.7,2.9,11.6l17.2,37.9c2-5.3,4-11.1,6-17.4c2-6.3,4.2-12.7,6.3-19.3c0.7-2,1.5-4.1,2.3-6.3c0.8-2.2,1.6-4.3,2.5-6.2
		c0.9-1.9,1.7-3.2,2.6-3.9l-10.2,0.6v-8.3h25.7v6.4c-3.7,1.3-6.5,3.6-8.5,6.9c-2,3.3-4,7.6-5.9,12.7l-19.6,55.1
		c-3,8.7-5.8,15.9-8.5,21.8c-2.6,5.9-5.5,10.3-8.7,13.3C1119.1,584.7,1115.1,586.2,1110.4,586.2z"/>
</g>
</svg>
