<?xml version="1.0" encoding="utf-8"?>
<!-- Generator: Adobe Illustrator 25.3.1, SVG Export Plug-In . SVG Version: 6.00 Build 0)  -->
<svg version="1.1" id="Layer_1" xmlns="http://www.w3.org/2000/svg" xmlns:xlink="http://www.w3.org/1999/xlink" x="0px" y="0px"
	 viewBox="0 0 24 24" style="enable-background:new 0 0 24 24;" xml:space="preserve">
<style type="text/css">
	.st0{fill:#4E65AF;}
</style>
<g>
	<path class="st0" d="M1.2,6.5v14.3c0,0.4,0.3,0.7,0.7,0.7h20.4c0.4,0,0.7-0.3,0.7-0.7V6.5H1.2z M12.7,11.9h7.5v1.4h-7.5V11.9z
		 M12.7,14.7h4.1V16h-4.1V14.7z M10.7,11.3v5.4c0,0.4-0.3,0.7-0.7,0.7H4.6c-0.4,0-0.7-0.3-0.7-0.7v-5.4c0-0.4,0.3-0.7,0.7-0.7H10
		C10.4,10.6,10.7,10.9,10.7,11.3z"/>
	<path class="st0" d="M23,5.1v-2c0-0.4-0.3-0.7-0.7-0.7H5.9v2.7H23z"/>
	<path class="st0" d="M4.6,2.4H1.9c-0.4,0-0.7,0.3-0.7,0.7v2h3.4V2.4z"/>
</g>
</svg>
