<?xml version="1.0" encoding="utf-8"?>
<!-- Generator: Adobe Illustrator 25.3.1, SVG Export Plug-In . SVG Version: 6.00 Build 0)  -->
<svg version="1.1" id="Layer_1" xmlns="http://www.w3.org/2000/svg" xmlns:xlink="http://www.w3.org/1999/xlink" x="0px" y="0px"
	 viewBox="0 0 24 24" style="enable-background:new 0 0 24 24;" xml:space="preserve">
<style type="text/css">
	.st0{fill:#4E65AF;}
</style>
<g>
	<path class="st0" d="M12,15.1c-1.7,0-3.1-1.4-3.1-3.1s1.4-3.1,3.1-3.1S15,10.3,15,12S13.7,15.1,12,15.1z M12,11c-0.6,0-1,0.5-1,1
		c0,0.6,0.5,1,1,1c0.6,0,1-0.5,1-1C13,11.4,12.5,11,12,11z"/>
	<path class="st0" d="M7.7,17.3c-0.3,0-0.5-0.1-0.7-0.3c-1.3-1.3-2.1-3.1-2.1-5s0.7-3.7,2.1-5c0.4-0.4,1-0.4,1.4,0
		c0.4,0.4,0.4,1,0,1.4c-1,1-1.5,2.2-1.5,3.6s0.5,2.6,1.5,3.6c0.4,0.4,0.4,1,0,1.4C8.2,17.2,7.9,17.3,7.7,17.3z"/>
	<path class="st0" d="M4.4,20.6c-0.3,0-0.5-0.1-0.7-0.3c-2.2-2.2-3.4-5.2-3.4-8.3s1.2-6.1,3.4-8.3c0.4-0.4,1-0.4,1.4,0
		c0.4,0.4,0.4,1,0,1.4C3.3,7,2.3,9.4,2.3,12s1,5,2.8,6.8c0.4,0.4,0.4,1,0,1.4C4.9,20.5,4.7,20.6,4.4,20.6z"/>
	<path class="st0" d="M19.5,20.6c-0.3,0-0.5-0.1-0.7-0.3c-0.4-0.4-0.4-1,0-1.4c1.8-1.8,2.8-4.3,2.8-6.8s-1-5-2.8-6.8
		c-0.4-0.4-0.4-1,0-1.4c0.4-0.4,1-0.4,1.4,0c2.2,2.2,3.4,5.2,3.4,8.3s-1.2,6.1-3.4,8.3C20.1,20.5,19.8,20.6,19.5,20.6z"/>
	<path class="st0" d="M16.3,17.3c-0.3,0-0.5-0.1-0.7-0.3c-0.4-0.4-0.4-1,0-1.4c1-1,1.5-2.2,1.5-3.6s-0.5-2.6-1.5-3.6
		c-0.4-0.4-0.4-1,0-1.4c0.4-0.4,1-0.4,1.4,0c1.3,1.3,2.1,3.1,2.1,5s-0.7,3.7-2.1,5C16.8,17.2,16.6,17.3,16.3,17.3z"/>
</g>
</svg>
