<?xml version="1.0" encoding="utf-8"?>
<!-- Generator: Adobe Illustrator 25.3.1, SVG Export Plug-In . SVG Version: 6.00 Build 0)  -->
<svg version="1.1" id="Layer_1" xmlns="http://www.w3.org/2000/svg" xmlns:xlink="http://www.w3.org/1999/xlink" x="0px" y="0px"
	 viewBox="0 0 24 24" style="enable-background:new 0 0 24 24;" xml:space="preserve">
<style type="text/css">
	.st0{fill:#4E65AF;}
</style>
<g>
	<path class="st0" d="M2,22.5c-0.6,0-1-0.5-1-1c0-0.3,0.1-0.5,0.3-0.7L8,14c0.4-0.4,1.1-0.4,1.5,0c0.4,0.4,0.4,1,0,1.4l-6.8,6.8
		C2.5,22.4,2.3,22.5,2,22.5z"/>
	<path class="st0" d="M15.2,3.7l1.2,0.4L18,2.5l-2.2-0.7c-0.2-0.1-3.8-1.2-6.3,1.3L3.3,9.3c-2.5,2.5-1.3,6.1-1.3,6.3l0.7,2.2
		l1.6-1.6L4,14.9c0,0-0.8-2.5,0.8-4.1L11,4.5C12.6,2.9,15.2,3.7,15.2,3.7z"/>
	<path class="st0" d="M15,9.5c-0.6,0-1-0.5-1-1c0-0.3,0.1-0.5,0.3-0.7L21,1c0.4-0.4,1.1-0.4,1.5,0c0.4,0.4,0.4,1,0,1.4l-6.8,6.8
		C15.5,9.4,15.3,9.5,15,9.5z"/>
	<path class="st0" d="M18.7,12.6c0.8,0,1.6,0.2,2.3,0.5c1.7-2.4,0.7-5.4,0.7-5.5l-0.7-2.2l-1.6,1.6l0.4,1.2c0,0,0.8,2.5-0.8,4.1
		L18.7,12.6z"/>
	<path class="st0" d="M12.9,18.4l-0.2,0.2c-1.6,1.6-4.1,0.8-4.1,0.8L7.4,19l-1.6,1.6l2.2,0.7c0.1,0,3.1,1,5.5-0.7
		C13.1,20,12.9,19.2,12.9,18.4z"/>
	<path class="st0" d="M13.9,18.3c0,2.6,2.1,4.7,4.7,4.7s4.7-2.1,4.7-4.7s-2.1-4.7-4.7-4.7S13.9,15.7,13.9,18.3z M19.1,16.3v1.6h1.6
		c0.3,0,0.5,0.2,0.5,0.5s-0.2,0.5-0.5,0.5h-1.6v1.6c0,0.3-0.2,0.5-0.5,0.5s-0.5-0.2-0.5-0.5v-1.6h-1.6c-0.3,0-0.5-0.2-0.5-0.5
		s0.2-0.5,0.5-0.5h1.6v-1.6c0-0.3,0.2-0.5,0.5-0.5S19.1,16,19.1,16.3z"/>
</g>
</svg>
