<?xml version="1.0" encoding="UTF-8"?><svg id="a" xmlns="http://www.w3.org/2000/svg" width="152" height="145.5" xmlns:xlink="http://www.w3.org/1999/xlink" viewBox="0 0 152 145.5"><defs><style>.d,.e,.f{fill:none;}.g{fill:#fbbc04;}.h{fill:#ea4335;}.i{fill:#fff;}.j{fill:#4284f4;}.k{fill:#34a853;}.l,.m{fill:#5f6368;}.m{stroke-width:.25px;}.m,.e,.f{stroke:#5f6368;stroke-miterlimit:10;}.e{stroke-width:.79px;}.f{stroke-width:.79px;}.n{clip-path:url(#b);}.o{clip-path:url(#c);}</style><clipPath id="b"><rect class="d" x="4.36" y="4.36" width="143.28" height="136.71"/></clipPath><clipPath id="c"><rect class="d" x="4.36" y="4.36" width="143.28" height="136.71"/></clipPath></defs><path class="i" d="M144.05,140.67H7.99c-1.74,0-3.16-1.41-3.16-3.16V7.91c0-1.74,1.41-3.16,3.16-3.16H144.05c1.74,0,3.16,1.41,3.16,3.16V137.51c0,1.74-1.41,3.16-3.16,3.16h0Z"/><g class="n"><path class="f" d="M144.05,140.67H7.99c-1.74,0-3.16-1.41-3.16-3.16V7.91c0-1.74,1.41-3.16,3.16-3.16H144.05c1.74,0,3.16,1.41,3.16,3.16V137.51c0,1.74-1.41,3.16-3.16,3.16h0Z"/><path class="i" d="M144.09,140.67H7.91c-1.74,0-3.16-1.41-3.16-3.16V7.91c0-1.74,1.41-3.16,3.16-3.16H144.09c1.74,0,3.16,1.41,3.16,3.16V137.51c0,1.74-1.41,3.16-3.16,3.16h0Z"/><path class="l" d="M4.75,112.92v22.86c0,3.46,1.25,4.89,4.89,4.89H142.36c3.85,0,5.71,0,4.89-4.89v-22.86H4.75Z"/></g><path class="i" d="M39.74,122.29h2.85c.48,0,.93,.11,1.34,.32s.74,.51,.98,.9c.24,.38,.36,.82,.36,1.3s-.12,.92-.36,1.3c-.24,.38-.57,.68-.98,.9-.41,.21-.86,.32-1.34,.32h-1.56v3.2h-1.29v-8.23Zm2.88,3.82c.28,0,.53-.06,.74-.19,.21-.13,.36-.29,.47-.49s.16-.41,.16-.62-.05-.42-.16-.62c-.11-.2-.26-.36-.47-.48s-.45-.18-.74-.18h-1.59v2.59h1.59Zm3.74-3.82h2.9c.49,0,.94,.11,1.35,.32s.73,.51,.96,.9c.23,.38,.35,.82,.35,1.3,0,.55-.18,1.04-.53,1.47-.36,.43-.8,.72-1.34,.86v.06s2.24,3.25,2.24,3.25v.07h-1.5l-2.17-3.22h-.97v3.22h-1.29v-8.23Zm2.86,3.82c.38,0,.71-.12,.98-.37,.27-.25,.4-.56,.4-.94,0-.21-.05-.42-.16-.62s-.26-.36-.46-.49c-.2-.13-.44-.19-.71-.19h-1.62v2.61h1.58Zm3.94-3.82h5v1.23h-3.71v2.28h3.35v1.22h-3.35v2.28h3.71v1.23h-5v-8.23Zm6.37,0h1.75l2.37,6.25h.07l2.37-6.25h1.75v8.23h-1.28v-4.61l.07-1.48h-.07l-2.36,6.09h-1.03l-2.36-6.09h-.07l.07,1.48v4.61h-1.28v-8.23Zm9.96,0h1.29v8.23h-1.29v-8.23Zm2.93,0h5v1.23h-3.71v2.28h3.35v1.22h-3.35v2.28h3.71v1.23h-5v-8.23Zm6.37,0h2.9c.49,0,.94,.11,1.35,.32s.73,.51,.96,.9c.23,.38,.35,.82,.35,1.3,0,.55-.18,1.04-.53,1.47-.36,.43-.8,.72-1.34,.86v.06s2.24,3.25,2.24,3.25v.07h-1.5l-2.17-3.22h-.97v3.22h-1.29v-8.23Zm2.86,3.82c.38,0,.71-.12,.98-.37,.27-.25,.4-.56,.4-.94,0-.21-.05-.42-.16-.62s-.26-.36-.46-.49c-.2-.13-.44-.19-.71-.19h-1.62v2.61h1.58Zm6.01,3.22c.25-.25,.73-.73,1.45-1.45s1.2-1.22,1.44-1.48c.32-.34,.54-.62,.66-.84s.18-.47,.18-.77-.12-.56-.35-.78c-.23-.22-.54-.33-.93-.33-.36,0-.65,.11-.88,.32-.23,.21-.37,.45-.44,.73l-1.15-.47c.08-.28,.22-.55,.43-.82s.49-.49,.85-.68c.35-.18,.76-.28,1.22-.28,.5,0,.94,.1,1.33,.3,.39,.2,.69,.48,.9,.83s.32,.73,.32,1.16c0,.45-.12,.89-.35,1.31-.23,.42-.53,.81-.89,1.17-.15,.15-.54,.53-1.16,1.15l-.94,.94,.02,.05h3.43v1.15h-5.12v-1.2Zm7.57,.83c-.49-.36-.87-.86-1.13-1.48s-.4-1.32-.4-2.09,.13-1.47,.4-2.1c.26-.62,.64-1.12,1.13-1.48s1.06-.54,1.7-.54,1.21,.18,1.7,.54c.49,.36,.86,.85,1.13,1.48,.26,.62,.4,1.33,.4,2.1s-.13,1.46-.4,2.09-.64,1.12-1.13,1.48c-.49,.36-1.05,.55-1.69,.55s-1.21-.18-1.7-.55Zm2.73-1.04c.29-.26,.52-.61,.68-1.05,.16-.44,.24-.94,.24-1.49s-.08-1.05-.24-1.5c-.16-.44-.38-.79-.68-1.05-.3-.25-.64-.38-1.03-.38s-.74,.13-1.04,.38c-.29,.25-.52,.6-.67,1.05s-.24,.94-.24,1.5,.08,1.05,.24,1.49c.16,.44,.38,.79,.67,1.05,.29,.26,.64,.39,1.04,.39s.73-.13,1.03-.39Zm2.98,.2c.25-.25,.73-.73,1.45-1.45s1.2-1.22,1.44-1.48c.32-.34,.54-.62,.66-.84s.18-.47,.18-.77-.12-.56-.35-.78c-.23-.22-.54-.33-.93-.33-.36,0-.65,.11-.88,.32-.23,.21-.37,.45-.44,.73l-1.15-.47c.08-.28,.22-.55,.43-.82s.49-.49,.85-.68c.35-.18,.76-.28,1.22-.28,.5,0,.94,.1,1.33,.3,.39,.2,.69,.48,.9,.83s.32,.73,.32,1.16c0,.45-.12,.89-.35,1.31-.23,.42-.53,.81-.89,1.17-.15,.15-.54,.53-1.16,1.15l-.94,.94,.02,.05h3.43v1.15h-5.12v-1.2Zm6.97,.87c-.51-.34-.86-.84-1.05-1.5l1.17-.48c.11,.41,.29,.72,.56,.94,.26,.22,.58,.33,.96,.33s.71-.12,.99-.35c.28-.23,.41-.53,.41-.89s-.15-.67-.44-.9c-.29-.23-.66-.35-1.09-.35h-.68v-1.16h.61c.38,0,.69-.1,.95-.3s.38-.48,.38-.83c0-.31-.11-.57-.34-.75-.23-.19-.52-.28-.87-.28s-.62,.09-.82,.28c-.2,.18-.35,.41-.44,.68l-1.16-.48c.15-.44,.44-.82,.85-1.16,.41-.33,.94-.5,1.59-.5,.48,0,.9,.09,1.28,.28,.38,.18,.68,.44,.89,.77,.21,.33,.32,.69,.32,1.1s-.1,.76-.3,1.05c-.2,.29-.44,.51-.74,.66v.07c.38,.16,.7,.41,.94,.74,.25,.33,.37,.72,.37,1.18s-.12,.87-.35,1.23c-.23,.36-.56,.64-.97,.85s-.87,.31-1.39,.31c-.59,0-1.14-.17-1.64-.51Z"/><g class="o"><path class="e" d="M144.09,140.67H7.91c-1.74,0-3.16-1.41-3.16-3.16V7.91c0-1.74,1.41-3.16,3.16-3.16H144.09c1.74,0,3.16,1.41,3.16,3.16V137.51c0,1.74-1.41,3.16-3.16,3.16h0Z"/></g><path class="m" d="M30.27,91.51c-.81-.47-1.45-1.11-1.93-1.93-.48-.82-.71-1.73-.71-2.72s.24-1.9,.71-2.72,1.12-1.46,1.93-1.93c.81-.47,1.7-.7,2.66-.7,.75,0,1.46,.13,2.12,.4,.66,.27,1.21,.64,1.64,1.13l-.87,.87c-.32-.4-.74-.71-1.24-.92-.51-.21-1.05-.32-1.63-.32-.72,0-1.4,.17-2.02,.52-.62,.35-1.12,.84-1.5,1.47-.38,.63-.56,1.37-.56,2.2s.19,1.56,.56,2.2,.88,1.12,1.51,1.47c.63,.35,1.3,.52,2.02,.52s1.26-.11,1.72-.32c.46-.21,.86-.5,1.19-.85,.25-.27,.45-.59,.6-.97,.15-.38,.25-.79,.29-1.25h-3.79v-1.13h4.92c.05,.27,.07,.51,.07,.74,0,.63-.1,1.24-.3,1.84s-.52,1.12-.96,1.57c-.94,1.02-2.2,1.53-3.76,1.53-.96,0-1.85-.23-2.66-.7Zm10.69,.19c-.57-.34-1.02-.81-1.34-1.4-.32-.59-.48-1.24-.48-1.96s.16-1.37,.48-1.96c.32-.59,.77-1.06,1.34-1.4,.57-.34,1.22-.51,1.93-.51s1.36,.17,1.93,.51c.57,.34,1.02,.81,1.34,1.4,.32,.59,.48,1.24,.48,1.96s-.16,1.37-.48,1.96c-.32,.59-.77,1.06-1.34,1.4-.57,.34-1.22,.51-1.93,.51s-1.36-.17-1.93-.51Zm3.18-.92c.39-.22,.7-.55,.93-.97,.23-.42,.35-.91,.35-1.47s-.12-1.05-.35-1.47c-.23-.42-.54-.74-.93-.96-.39-.22-.8-.34-1.25-.34s-.87,.11-1.26,.34c-.39,.22-.7,.55-.94,.96-.23,.42-.35,.91-.35,1.47s.12,1.05,.35,1.47c.23,.42,.55,.74,.94,.97,.39,.22,.81,.34,1.26,.34s.87-.11,1.25-.34Zm5.33,.92c-.57-.34-1.02-.81-1.34-1.4-.32-.59-.48-1.24-.48-1.96s.16-1.37,.48-1.96c.32-.59,.77-1.06,1.34-1.4,.57-.34,1.22-.51,1.93-.51s1.36,.17,1.93,.51c.57,.34,1.02,.81,1.34,1.4,.32,.59,.48,1.24,.48,1.96s-.16,1.37-.48,1.96c-.32,.59-.77,1.06-1.34,1.4-.57,.34-1.22,.51-1.93,.51s-1.36-.17-1.93-.51Zm3.18-.92c.39-.22,.7-.55,.93-.97,.23-.42,.35-.91,.35-1.47s-.12-1.05-.35-1.47c-.23-.42-.54-.74-.93-.96-.39-.22-.8-.34-1.25-.34s-.87,.11-1.26,.34c-.39,.22-.7,.55-.94,.96-.23,.42-.35,.91-.35,1.47s.12,1.05,.35,1.47c.23,.42,.55,.74,.94,.97,.39,.22,.81,.34,1.26,.34s.87-.11,1.25-.34Zm4.98,3.92c-.56-.4-.93-.88-1.12-1.44l1.1-.47c.16,.42,.43,.76,.81,1.02,.38,.26,.82,.39,1.34,.39,.75,0,1.34-.21,1.75-.63,.41-.42,.62-1.02,.62-1.8v-.81h-.06c-.24,.37-.57,.67-1.01,.91-.43,.23-.93,.35-1.48,.35-.63,0-1.2-.16-1.72-.49-.52-.33-.93-.79-1.24-1.37-.31-.59-.46-1.26-.46-2.01s.15-1.41,.46-2,.72-1.05,1.24-1.38c.52-.33,1.09-.49,1.72-.49,.55,0,1.05,.12,1.48,.35,.43,.23,.77,.54,1.01,.92h.06v-1.04h1.16v7.01c0,1.17-.32,2.07-.97,2.68-.65,.61-1.5,.92-2.56,.92-.86,0-1.57-.2-2.12-.6Zm3.32-3.92c.36-.22,.64-.54,.86-.96,.21-.42,.32-.91,.32-1.48s-.11-1.08-.32-1.5c-.21-.42-.5-.73-.86-.95s-.76-.33-1.19-.33-.84,.11-1.2,.33-.65,.54-.87,.96c-.21,.42-.32,.91-.32,1.48s.11,1.07,.32,1.49c.21,.42,.5,.74,.87,.96s.76,.33,1.2,.33,.84-.11,1.19-.33Zm4.13-9.03h1.22v10.24h-1.22v-10.24Zm4.39,9.97c-.55-.33-.98-.79-1.29-1.38-.31-.59-.46-1.25-.46-1.98s.15-1.35,.44-1.95c.29-.59,.7-1.06,1.24-1.42,.53-.35,1.15-.53,1.86-.53s1.33,.16,1.86,.48c.52,.32,.93,.76,1.21,1.32s.42,1.21,.42,1.93c0,.14-.01,.27-.04,.37h-5.76c.03,.55,.16,1.02,.4,1.4,.24,.38,.54,.67,.91,.86,.37,.19,.75,.29,1.15,.29,.93,0,1.65-.44,2.16-1.32l1.03,.5c-.31,.59-.74,1.06-1.28,1.4-.54,.34-1.19,.51-1.95,.51-.7,0-1.32-.17-1.87-.5Zm3.98-4.15c-.02-.3-.11-.61-.26-.92-.15-.3-.39-.56-.72-.77-.33-.21-.74-.31-1.24-.31-.57,0-1.06,.18-1.45,.55-.4,.37-.66,.85-.78,1.45h4.45Zm5.69-5.82h3.45c.57,0,1.1,.13,1.59,.39,.49,.26,.87,.62,1.17,1.08,.29,.46,.44,.98,.44,1.57s-.15,1.1-.44,1.57c-.29,.46-.68,.82-1.17,1.08-.49,.26-1.02,.39-1.59,.39h-2.25v4.18h-1.2v-10.24Zm3.48,4.9c.38,0,.72-.09,1.01-.27,.29-.18,.52-.41,.68-.7s.24-.59,.24-.9-.08-.61-.24-.9-.39-.52-.68-.7c-.29-.18-.63-.27-1.01-.27h-2.27v3.75h2.27Zm5.61,5.25c-.42-.21-.74-.5-.97-.87-.23-.37-.34-.78-.34-1.25,0-.77,.29-1.38,.87-1.81s1.32-.65,2.2-.65c.44,0,.85,.05,1.22,.14,.38,.1,.67,.21,.87,.33v-.44c0-.54-.19-.98-.57-1.31s-.86-.49-1.44-.49c-.41,0-.79,.09-1.13,.26-.34,.18-.61,.42-.81,.74l-.92-.69c.29-.44,.68-.78,1.18-1.03,.5-.25,1.06-.37,1.67-.37,.99,0,1.77,.26,2.34,.78,.57,.52,.85,1.23,.85,2.12v4.62h-1.16v-1.04h-.06c-.21,.35-.52,.65-.94,.9-.42,.25-.89,.37-1.42,.37s-1.01-.1-1.43-.31Zm2.69-1.07c.35-.21,.63-.49,.84-.84,.21-.35,.31-.74,.31-1.16-.23-.15-.51-.28-.84-.37-.33-.09-.69-.14-1.06-.14-.67,0-1.17,.14-1.51,.42-.34,.28-.51,.63-.51,1.07,0,.4,.15,.72,.46,.97,.31,.25,.69,.37,1.16,.37,.41,0,.79-.1,1.14-.31Zm3.8-6.02h1.16v1.16h.06c.17-.43,.46-.76,.87-1s.86-.36,1.34-.36c.21,0,.39,.01,.53,.04v1.24c-.16-.04-.38-.06-.66-.06-.62,0-1.12,.21-1.51,.61-.39,.41-.58,.94-.58,1.6v4.05h-1.22v-7.29Zm7.4,7.26c-.25-.1-.46-.23-.64-.39-.19-.18-.33-.4-.43-.64-.1-.24-.14-.54-.14-.89v-4.35h-1.27v-1.1h1.27v-2.06h1.21v2.06h1.77v1.1h-1.77v4.06c0,.41,.08,.71,.23,.91,.18,.21,.44,.32,.79,.32,.28,0,.54-.08,.8-.24v1.19c-.14,.07-.29,.11-.44,.14-.15,.03-.34,.04-.56,.04-.3,0-.57-.05-.82-.15Zm3.17-7.38h1.16v1.07h.06c.2-.36,.52-.67,.96-.92,.44-.25,.91-.38,1.4-.38,.88,0,1.55,.25,2.01,.76,.46,.51,.69,1.2,.69,2.08v4.68h-1.22v-4.49c0-.68-.16-1.17-.49-1.47-.32-.3-.77-.46-1.33-.46-.39,0-.74,.11-1.05,.33-.31,.22-.55,.51-.72,.87-.17,.36-.26,.73-.26,1.12v4.1h-1.22v-7.29Zm9.39,7.02c-.55-.33-.98-.79-1.29-1.38-.31-.59-.46-1.25-.46-1.98s.15-1.35,.44-1.95c.29-.59,.7-1.06,1.24-1.42s1.15-.53,1.86-.53,1.33,.16,1.86,.48,.93,.76,1.21,1.32c.28,.56,.42,1.21,.42,1.93,0,.14-.01,.27-.04,.37h-5.76c.03,.55,.16,1.02,.4,1.4,.24,.38,.54,.67,.91,.86,.37,.19,.75,.29,1.15,.29,.93,0,1.65-.44,2.16-1.32l1.03,.5c-.32,.59-.74,1.06-1.28,1.4-.54,.34-1.19,.51-1.95,.51-.7,0-1.32-.17-1.87-.5Zm3.98-4.15c-.02-.3-.11-.61-.26-.92-.15-.3-.39-.56-.72-.77-.33-.21-.74-.31-1.24-.31-.57,0-1.06,.18-1.45,.55-.4,.37-.66,.85-.78,1.45h4.45Zm2.69-2.87h1.16v1.17h.06c.14-.4,.42-.73,.83-1,.41-.27,.84-.4,1.29-.4,.33,0,.62,.05,.86,.16v1.3c-.31-.15-.65-.23-1.03-.23-.35,0-.68,.1-.97,.3-.3,.2-.53,.47-.71,.81-.18,.34-.26,.7-.26,1.1v4.08h-1.22v-7.29Z"/><path class="j" d="M97.11,48.04c0-1.53-.24-3-.49-4.42h-20.12v8.34h11.29c-.5,2.7-1.78,4.99-4.07,6.53v5.44h6.99c4.07-3.76,6.41-9.32,6.41-15.89h0Z"/><path class="k" d="M76.43,69.15c5.81,0,10.7-1.91,14.27-5.21l-6.99-5.44c-1.92,1.3-4.39,2.06-7.29,2.06-5.6,0-10.36-3.79-12.06-8.9h-7.18v5.59c3.54,7.06,10.82,11.9,19.24,11.9h0Z"/><path class="g" d="M64.37,51.66c-.43-1.3-.67-2.68-.67-4.11s.24-2.81,.67-4.11v-5.59h-7.18c-1.46,2.92-2.29,6.21-2.29,9.7s.83,6.78,2.29,9.7l7.18-5.59h0Z"/><path class="h" d="M76.43,34.54c3.16,0,6,1.09,8.24,3.23l6.17-6.19c-3.73-3.49-8.6-5.63-14.41-5.63-8.41,0-15.7,4.84-19.24,11.9l7.18,5.59c1.7-5.11,6.45-8.9,12.06-8.9h0Z"/></svg>