<?xml version="1.0" encoding="utf-8"?>
<!-- Generator: Adobe Illustrator 25.4.1, SVG Export Plug-In . SVG Version: 6.00 Build 0)  -->
<svg version="1.1" id="Layer_1" xmlns="http://www.w3.org/2000/svg" xmlns:xlink="http://www.w3.org/1999/xlink" x="0px" y="0px"
	 viewBox="0 0 218.9 53" style="enable-background:new 0 0 218.9 53;" xml:space="preserve">
<style type="text/css">
	.st0{fill:#0076C0;}
	.st1{fill:#F68A33;}
</style>
<g id="Layer_1_00000137838275151225910030000008709807839128551824_">
	<g>
		<path class="st0" d="M102.9,15.2h1l3.5,9h-0.9l-1.1-2.8h-4.1l-1.1,2.8h-0.9L102.9,15.2z M101.5,20.7h3.6l-1.7-4.6L101.5,20.7z"/>
		<path class="st0" d="M108.1,17.8h0.7v1.1l0,0c0.4-0.8,1.1-1.3,2.1-1.3c0.9,0,1.6,0.4,1.9,1.3c0.4-0.9,1.2-1.3,2.1-1.3
			c1.4,0,2.2,0.7,2.2,2.3v4.4h-0.8v-4.4c0-1.1-0.4-1.7-1.5-1.7c-1.4,0-1.8,1.1-1.8,2.4v3.7h-0.8v-4.4c0-0.9-0.4-1.6-1.4-1.6
			c-1.4,0-1.9,1-1.9,2.4v3.6h-0.8L108.1,17.8L108.1,17.8z"/>
		<path class="st0" d="M118.8,21.2c0,1.2,0.6,2.6,2.2,2.6c1.2,0,1.8-0.7,2-1.7h0.8c-0.3,1.5-1.2,2.3-2.8,2.3c-2.1,0-2.9-1.6-2.9-3.5
			c0-1.7,0.9-3.5,2.9-3.5c2.1,0,2.9,1.8,2.9,3.7h-5.1V21.2z M123.1,20.6c0-1.2-0.8-2.3-2.1-2.3c-1.3,0-2,1.1-2.2,2.3H123.1z"/>
		<path class="st0" d="M125.2,17.8h0.7v1.5l0,0c0.4-1,1.3-1.7,2.5-1.6v0.8c-1.4-0.1-2.4,1-2.4,2.3v3.5h-0.8
			C125.2,24.3,125.2,17.8,125.2,17.8z"/>
		<path class="st0" d="M129.2,15.2h0.8v1.3h-0.8V15.2z M129.2,17.8h0.8v6.5h-0.8V17.8z"/>
		<path class="st0" d="M135.9,19.8c-0.2-1-0.8-1.6-1.8-1.6c-1.5,0-2.3,1.4-2.3,2.8s0.8,2.8,2.3,2.8c1,0,1.8-0.8,1.9-1.9h0.8
			c-0.2,1.6-1.2,2.5-2.7,2.5c-2,0-3.1-1.6-3.1-3.5s1.1-3.5,3.1-3.5c1.4,0,2.5,0.7,2.6,2.2h-0.8V19.8z"/>
		<path class="st0" d="M137.7,19.8c0.1-1.5,1.2-2.2,2.6-2.2c1.2,0,2.4,0.4,2.4,2.1v3.5c0,0.3,0.2,0.5,0.5,0.5c0.1,0,0.2,0,0.3,0v0.7
			c-0.2,0-0.3,0.1-0.5,0.1c-0.8,0-0.9-0.5-0.9-1.1l0,0c-0.6,0.8-1.1,1.3-2.4,1.3c-1.2,0-2.2-0.6-2.2-1.9c0-1.8,1.8-1.9,3.5-2.1
			c0.7-0.1,1-0.2,1-0.9c0-1.1-0.8-1.3-1.7-1.3c-1,0-1.7,0.5-1.7,1.5h-0.9V19.8z M142,20.7L142,20.7c-0.1,0.2-0.5,0.3-0.7,0.3
			c-1.4,0.2-3,0.2-3,1.5c0,0.8,0.7,1.3,1.5,1.3c1.2,0,2.3-0.8,2.3-2v-1.1H142z"/>
		<path class="st0" d="M144.4,17.8h0.8v1.1l0,0c0.3-0.8,1.2-1.3,2.1-1.3c1.8,0,2.4,1,2.4,2.5v4.2h-0.8v-4.1c0-1.1-0.4-2-1.7-2
			s-2,1-2,2.2v3.8h-0.8V17.8z"/>
		<path class="st0" d="M157.5,15.2h1l3.5,9h-0.9l-1.1-2.8h-4.1l-1.1,2.8h-0.9L157.5,15.2z M156.1,20.7h3.6l-1.7-4.6L156.1,20.7z"/>
		<path class="st0" d="M167.3,19.8c-0.2-1-0.8-1.6-1.8-1.6c-1.5,0-2.3,1.4-2.3,2.8s0.8,2.8,2.3,2.8c1,0,1.8-0.8,1.9-1.9h0.8
			c-0.2,1.6-1.2,2.5-2.7,2.5c-2,0-3.1-1.6-3.1-3.5s1.1-3.5,3.1-3.5c1.4,0,2.5,0.7,2.6,2.2h-0.8V19.8z"/>
		<path class="st0" d="M169.1,19.8c0.1-1.5,1.1-2.2,2.6-2.2c1.1,0,2.4,0.4,2.4,2.1v3.5c0,0.3,0.2,0.5,0.5,0.5c0.1,0,0.2,0,0.3,0v0.7
			c-0.2,0-0.3,0.1-0.5,0.1c-0.8,0-0.9-0.5-0.9-1.1l0,0c-0.6,0.8-1.1,1.3-2.4,1.3c-1.2,0-2.2-0.6-2.2-1.9c0-1.8,1.8-1.9,3.5-2.1
			c0.7-0.1,1-0.2,1-0.9c0-1.1-0.8-1.3-1.7-1.3c-1,0-1.7,0.5-1.7,1.5h-0.9V19.8z M173.4,20.7L173.4,20.7c-0.1,0.2-0.5,0.3-0.7,0.3
			c-1.4,0.2-3,0.2-3,1.5c0,0.8,0.7,1.3,1.5,1.3c1.2,0,2.3-0.8,2.3-2v-1.1H173.4z"/>
		<path class="st0" d="M181.3,24.3h-0.7V23l0,0c-0.3,0.8-1.4,1.4-2.3,1.4c-2,0-2.9-1.6-2.9-3.5c0-1.8,0.9-3.5,2.9-3.5
			c1,0,1.9,0.5,2.3,1.4l0,0v-3.7h0.8v9.2H181.3z M178.2,23.8c1.7,0,2.3-1.4,2.3-2.8s-0.6-2.8-2.3-2.8c-1.5,0-2.1,1.4-2.1,2.8
			C176,22.4,176.7,23.8,178.2,23.8z"/>
		<path class="st0" d="M183,21.2c0,1.2,0.6,2.6,2.2,2.6c1.2,0,1.8-0.7,2-1.7h0.8c-0.3,1.5-1.2,2.3-2.8,2.3c-2.1,0-2.9-1.6-2.9-3.5
			c0-1.7,0.9-3.5,2.9-3.5c2.1,0,2.9,1.8,2.9,3.7H183V21.2z M187.2,20.6c0-1.2-0.8-2.3-2.1-2.3s-2,1.1-2.2,2.3H187.2z"/>
		<path class="st0" d="M189.1,17.8h0.7v1.1l0,0c0.4-0.8,1.1-1.3,2.1-1.3c0.9,0,1.6,0.4,1.9,1.3c0.4-0.9,1.2-1.3,2.1-1.3
			c1.4,0,2.2,0.7,2.2,2.3v4.4h-0.8v-4.4c0-1.1-0.4-1.7-1.5-1.7c-1.4,0-1.8,1.1-1.8,2.4v3.7h-0.8v-4.4c0-0.9-0.4-1.6-1.4-1.6
			c-1.4,0-1.9,1-1.9,2.4v3.6h-0.8V17.8z"/>
		<path class="st0" d="M198.6,17.8h0.8l2.2,5.6l2-5.6h0.8l-2.8,7.5c-0.5,1.1-0.7,1.4-1.7,1.4c-0.3,0-0.5,0-0.6-0.1V26
			c0.2,0,0.4,0.1,0.5,0.1c0.7,0,0.9-0.4,1.1-1l0.3-0.7L198.6,17.8z"/>
	</g>
	<g>
		<path class="st0" d="M105.1,34.4c0,1.9-1.1,3.5-3.1,3.5s-3.1-1.6-3.1-3.5s1.1-3.5,3.1-3.5C104,30.9,105.1,32.5,105.1,34.4z
			 M99.7,34.4c0,1.4,0.8,2.8,2.3,2.8s2.3-1.4,2.3-2.8c0-1.4-0.8-2.8-2.3-2.8C100.4,31.6,99.7,33,99.7,34.4z"/>
		<path class="st0" d="M108.5,31.8h-1.3v5.9h-0.8v-5.9h-1.1v-0.7h1.1v-0.6c0-1.1,0.3-1.9,1.6-1.9c0.2,0,0.4,0,0.7,0.1v0.7
			c-0.2,0-0.4-0.1-0.6-0.1c-0.9,0-0.9,0.6-0.9,1.3v0.6h1.3C108.5,31.2,108.5,31.8,108.5,31.8z"/>
		<path class="st0" d="M119.5,31.4c-0.3-1.4-1.5-2.2-2.8-2.2c-2.4,0-3.4,2-3.4,4s1,4,3.4,4c1.7,0,2.7-1.3,2.9-2.9h0.9
			c-0.2,2.2-1.6,3.6-3.8,3.6c-2.8,0-4.3-2.2-4.3-4.7s1.4-4.7,4.3-4.7c1.7,0,3.4,1,3.6,2.9C120.3,31.4,119.5,31.4,119.5,31.4z"/>
		<path class="st0" d="M127.8,34.4c0,1.9-1.1,3.5-3.1,3.5s-3.1-1.6-3.1-3.5s1.1-3.5,3.1-3.5C126.7,30.9,127.8,32.5,127.8,34.4z
			 M122.4,34.4c0,1.4,0.8,2.8,2.3,2.8s2.3-1.4,2.3-2.8c0-1.4-0.8-2.8-2.3-2.8C123.2,31.6,122.4,33,122.4,34.4z"/>
		<path class="st0" d="M132.6,33c0-1-0.8-1.4-1.7-1.4c-0.7,0-1.5,0.3-1.5,1.1c0,0.7,0.8,1,1.4,1.1l1.1,0.2c0.9,0.1,1.9,0.7,1.9,1.8
			c0,1.4-1.4,2-2.6,2c-1.5,0-2.6-0.7-2.7-2.3h0.8c0.1,1.1,0.9,1.6,1.9,1.6c0.7,0,1.8-0.3,1.8-1.2c0-0.8-0.7-1-1.4-1.2l-1-0.2
			c-1-0.3-1.8-0.6-1.8-1.7c0-1.3,1.3-1.8,2.5-1.8c1.3,0,2.3,0.7,2.4,2.1L132.6,33L132.6,33z"/>
		<path class="st0" d="M134.8,31.1h0.7v1.1l0,0c0.4-0.8,1.1-1.3,2.1-1.3c0.9,0,1.6,0.4,1.9,1.3c0.4-0.9,1.2-1.3,2.1-1.3
			c1.4,0,2.2,0.7,2.2,2.3v4.4H143v-4.4c0-1.1-0.4-1.7-1.5-1.7c-1.4,0-1.8,1.1-1.8,2.4v3.7h-0.8v-4.4c0-0.9-0.4-1.6-1.4-1.6
			c-1.4,0-1.9,1-1.9,2.4v3.6h-0.8V31.1z"/>
		<path class="st0" d="M145.6,34.6c0,1.2,0.6,2.6,2.1,2.6c1.2,0,1.8-0.7,2-1.7h0.8c-0.3,1.5-1.2,2.3-2.8,2.3c-2.1,0-2.9-1.6-2.9-3.5
			c0-1.7,0.9-3.5,2.9-3.5c2.1,0,2.9,1.8,2.9,3.7h-5V34.6z M149.8,33.9c0-1.2-0.8-2.3-2.1-2.3s-2,1.1-2.1,2.3H149.8z"/>
		<path class="st0" d="M152.9,31.1h1.3v0.7h-1.3v4.4c0,0.5,0.1,0.8,0.6,0.9c0.2,0,0.5,0,0.7,0v0.7c-0.2,0-0.5,0-0.7,0
			c-1.1,0-1.4-0.4-1.4-1.5v-4.5H151v-0.7h1.1v-2h0.8L152.9,31.1L152.9,31.1z"/>
		<path class="st0" d="M155.4,28.6h0.8v1.3h-0.8V28.6z M155.4,31.1h0.8v6.5h-0.8V31.1z"/>
		<path class="st0" d="M162.1,33.2c-0.2-1-0.8-1.6-1.8-1.6c-1.5,0-2.3,1.4-2.3,2.8s0.8,2.8,2.3,2.8c1,0,1.8-0.8,1.9-1.9h0.8
			c-0.2,1.6-1.2,2.5-2.7,2.5c-2,0-3.1-1.6-3.1-3.5s1.1-3.5,3.1-3.5c1.4,0,2.5,0.7,2.6,2.2h-0.8V33.2z"/>
		<path class="st0" d="M167.7,28.6h3.1c2.7,0.1,4.1,1.6,4.1,4.5c0,3-1.4,4.5-4.1,4.5h-3.1V28.6z M168.6,36.9h1.8
			c2.6,0,3.7-1.1,3.7-3.8s-1.1-3.8-3.7-3.8h-1.8V36.9z"/>
		<path class="st0" d="M176.7,34.6c0,1.2,0.6,2.6,2.2,2.6c1.2,0,1.8-0.7,2-1.7h0.8c-0.3,1.5-1.2,2.3-2.8,2.3c-2.1,0-2.9-1.6-2.9-3.5
			c0-1.7,0.9-3.5,2.9-3.5c2.1,0,2.9,1.8,2.9,3.7h-5.1V34.6z M180.9,33.9c0-1.2-0.8-2.3-2.1-2.3s-2,1.1-2.2,2.3H180.9z"/>
		<path class="st0" d="M182.8,31.1h0.8v1.1l0,0c0.3-0.8,1.2-1.3,2.1-1.3c1.8,0,2.4,1,2.4,2.5v4.2h-0.8v-4.1c0-1.1-0.4-2-1.7-2
			s-2,1-2,2.2v3.8h-0.8V31.1z"/>
		<path class="st0" d="M190.3,31.1h1.3v0.7h-1.3v4.4c0,0.5,0.1,0.8,0.6,0.9c0.2,0,0.5,0,0.7,0v0.7c-0.2,0-0.5,0-0.7,0
			c-1.1,0-1.4-0.4-1.4-1.5v-4.5h-1.1v-0.7h1.1v-2h0.8L190.3,31.1L190.3,31.1z"/>
		<path class="st0" d="M192.8,28.6h0.8v1.3h-0.8V28.6z M192.8,31.1h0.8v6.5h-0.8V31.1z"/>
		<path class="st0" d="M199.1,33c0-1-0.8-1.4-1.7-1.4c-0.7,0-1.5,0.3-1.5,1.1c0,0.7,0.8,1,1.4,1.1l1.1,0.2c0.9,0.1,1.9,0.7,1.9,1.8
			c0,1.4-1.4,2-2.6,2c-1.5,0-2.6-0.7-2.7-2.3h0.8c0.1,1.1,0.9,1.6,1.9,1.6c0.7,0,1.8-0.3,1.8-1.2c0-0.8-0.7-1-1.4-1.2l-1-0.2
			c-1-0.3-1.8-0.6-1.8-1.7c0-1.3,1.3-1.8,2.5-1.8c1.3,0,2.3,0.7,2.4,2.1L199.1,33L199.1,33z"/>
		<path class="st0" d="M202.3,31.1h1.3v0.7h-1.3v4.4c0,0.5,0.1,0.8,0.6,0.9c0.2,0,0.5,0,0.7,0v0.7c-0.2,0-0.5,0-0.7,0
			c-1.1,0-1.4-0.4-1.4-1.5v-4.5h-1.1v-0.7h1.1v-2h0.8L202.3,31.1L202.3,31.1z"/>
	</g>
	<g>
		<path class="st0" d="M204.8,31.1h0.7v1.5l0,0c0.4-1,1.3-1.7,2.5-1.6v0.8c-1.4-0.1-2.4,1-2.4,2.3v3.5h-0.8V31.1z"/>
	</g>
	<g>
		<path class="st0" d="M208.8,31.1h0.8l2.1,5.6l2-5.6h0.8l-2.8,7.5c-0.5,1.1-0.7,1.4-1.7,1.4c-0.3,0-0.5,0-0.6-0.1v-0.7
			c0.2,0,0.4,0.1,0.5,0.1c0.7,0,0.9-0.4,1.1-1l0.3-0.7L208.8,31.1z"/>
	</g>
	<path class="st1" d="M1.9,39.6v-0.5V39.6z"/>
	<g>
		<path class="st1" d="M58,39.1h-3.3l-3.8-8.8c-1.3,3.2-1.9,6.2-1.8,9.3H58V39.1z"/>
		<path class="st1" d="M35,26.8l-5,12.3l0,0L17.8,11h-1L5.2,39.1H1.9v0.5h7.3v-0.5H5.8l4.5-11h8.8l4.7,11h-2.7v0.5h5.5h6.6H34v-0.5
			h-0.8h-2.7l5-12.1c0,0,0,0-0.1,0C35.3,26.9,35.2,26.8,35,26.8 M10.6,27.5l4-9.8l4.2,9.8H10.6z"/>
		<path class="st0" d="M75.8,14.8v1.1c1.4-1.1,2.7-2.2,3.9-3.3c-0.4,0-0.8,0-1.2,0C77.6,13.3,76.7,14.1,75.8,14.8"/>
		<path class="st0" d="M58.5,8.4c-0.1-0.6-3.3-1.4-4.4-1.6c-3.8-0.7-9.2-0.5-12,0c-4.9,0.9-8.8,2.3-11.4,4.5c-2,1.8-3.6,4.9-3.1,8
			c0.5,3.3,3.3,6,7.3,7.4c0.2,0.1,0.3,0.1,0.5,0.2c0,0,0,0,0.1,0c3,1,5.5,1.6,8.6,1.6l-0.4-1c-2.5-0.1-4.8-0.6-7.3-1.4
			c-0.2-0.1-0.3-0.1-0.5-0.2s-0.4-0.1-0.5-0.2c-3.9-1.5-6.4-3.8-6.9-6.7c-0.5-3,1.1-5.8,3.1-7.4c2.5-2,5.8-3.4,10.9-4.1
			C46,7.1,51.8,7.1,55.3,8c1,0.3,2.6,0.8,3,0.7C58.4,8.7,58.5,8.6,58.5,8.4"/>
		<path class="st1" d="M80.2,12.1c-0.4,0-0.8,0-1.1-0.1c-0.3,0-0.6,0-0.9,0c-2.6,0-5.3,0.1-7.9,0.1h-3.6v0.5h3.6v6.1
			c0.9-0.6,1.8-1.2,2.7-1.8c1-0.7,2-1.4,2.9-2.1v-2.2c0.5-0.1,1.4-0.1,2.4-0.1c0.1,0,0.2,0,0.3,0c0.4,0,0.8,0,1.2,0
			c7.7,0.6,9.1,5.8,9.1,13.7c0,5.1-0.9,13-10.9,13c-0.3,0-0.7,0-1,0c-0.1,0.2-0.2,0.4-0.4,0.5c0.8,0,1.6,0,2.5,0
			c6,0,16.1-2.6,16.1-13.9C95,15.6,86.9,12.6,80.2,12.1"/>
		<path class="st0" d="M70.2,24.4v-0.8c-3.8,1-8.1,3.6-11.4,6.9l1.5-0.3C62.9,27.5,67.1,25.3,70.2,24.4"/>
		<path class="st1" d="M75.8,39.1v-4.6V24.2v-0.8v-0.7v-6.8c-0.6,0.5-1.3,1-2,1.4c-1.2,0.9-2.4,1.7-3.6,2.4v2.9v0.9v0.8V39h-3.6v0.5
			h3.6c1.8,0,3.6,0,5.3,0.1c0.1-0.2,0.3-0.4,0.4-0.6C75.9,39.1,75.8,39.1,75.8,39.1"/>
		<path class="st0" d="M48.1,27.4L48.1,27.4L48.1,27.4z"/>
		<path class="st0" d="M47.6,28.5c0,0.1,0,0.1-0.1,0.2v-0.1C47.6,28.6,47.6,28.5,47.6,28.5"/>
		<path class="st1" d="M42.5,11h-1l-6.1,14.8c0.2,0.1,0.4,0.1,0.5,0.2l3.5-8.4l4.3,10l0.4,1l2,4.7c0.3-1.6,0.8-3.2,1.5-4.9v0.1
			c0.1-0.3,0.3-0.8,0.4-1l0,0c0.1-0.1,0.6-1.2,0.6-1.2l0,0l0.1-0.2c0.1-0.1,0.2-0.3,0.2-0.4L42.5,11z"/>
		<path class="st0" d="M79,12c0.4,0,0.8,0,1.1,0.1c2.6-2.7,4.2-5.3,4-7.4c-0.2-1.9-2.4-3.2-5.5-2.9c-3.2,0.4-11.3,4.4-17.9,9.7
			c-5.3,4.3-8.4,8.3-11.8,14.2c-0.1,0.1-0.2,0.3-0.2,0.4l-0.1,0.2l0,0c0,0-0.5,1-0.6,1.1c-0.1,0.3-0.3,0.8-0.4,1
			c-0.6,1.7-1.1,3.2-1.4,4.8c-0.5,2.3-0.6,4.6-0.3,7.2c1.4,12,13.5,12,19.2,9.2c5.2-2.6,8.6-5.9,10.8-9c0.2-0.3,0.5-0.6,0.7-1
			c0.1-0.2,0.2-0.4,0.4-0.5c2.4-3.8,3.5-7.5,3.1-10.5c-0.3-2.6-1.7-4.6-4.2-5.3v0.8c2,0.6,3.2,2.1,3.5,4.5c0.3,2.9-1,7-3.3,10.4
			c-0.1,0.2-0.3,0.4-0.4,0.6l-0.1,0.1c-3.1,4.2-9,9.2-15,9.9c-4.9,0.6-7.4-0.7-9.7-3.6l-0.5-0.8c-0.5-1.4-0.7-2.1-0.9-3.1
			c-0.1-0.9-0.2-1.7-0.2-2.5c-0.1-3.1,0.5-6.1,1.8-9.3c0.3-0.8,0.7-1.6,1.1-2.4c7.9-2.4,13.2-5,18.2-8.2c1.2-0.8,2.4-1.6,3.6-2.4
			c0.7-0.5,1.3-0.9,2-1.4v-1.1c-0.9,0.7-1.9,1.4-2.9,2.1c-0.9,0.6-1.8,1.2-2.7,1.8c-5.5,3.5-11.3,6.4-17.5,7.9
			c3.3-5.2,7.8-10.9,12.9-15.3c3-2.6,10.7-8.2,14.2-8.6c2-0.2,3.2,0.8,3.4,2.1C83.6,6.6,81.8,9.3,79,12"/>
	</g>
</g>
<g id="Layer_2_00000099663371763895429890000012633311997654968713_">
	<g>
		<path class="st0" d="M217.4,31.8c0,0.6-0.5,1.1-1.1,1.1s-1.1-0.5-1.1-1.1s0.5-1.1,1.1-1.1C216.9,30.7,217.4,31.2,217.4,31.8z
			 M215.3,31.8c0,0.5,0.4,1,0.9,1s0.9-0.4,0.9-1c0-0.5-0.4-1-0.9-1S215.3,31.3,215.3,31.8z M216,32.4h-0.2v-1.3h0.5
			c0.3,0,0.4,0.1,0.4,0.4c0,0.2-0.2,0.3-0.3,0.4l0.4,0.6h-0.2l-0.4-0.6H216V32.4z M216.2,31.7c0.2,0,0.4,0,0.4-0.2s-0.2-0.2-0.3-0.2
			H216v0.4C216,31.7,216.2,31.7,216.2,31.7z"/>
	</g>
</g>
</svg>
