<?xml version="1.0" encoding="utf-8"?>
<!-- Generator: Adobe Illustrator 25.1.0, SVG Export Plug-In . SVG Version: 6.00 Build 0)  -->
<svg version="1.1" id="Layer_1" xmlns="http://www.w3.org/2000/svg" xmlns:xlink="http://www.w3.org/1999/xlink" x="0px" y="0px"
	 viewBox="0 0 642.5 644.5" style="enable-background:new 0 0 642.5 644.5;" xml:space="preserve">
<style type="text/css">
	.st0{fill:#FFFFFF;}
</style>
<path class="st0" d="M320.3,18C152.2,18,16,154.2,16,322.3s136.2,304.3,304.3,304.3s304.3-136.2,304.3-304.3S488.3,18,320.3,18z
	 M320.3,610.7C161,610.7,31.8,481.6,31.8,322.3S161,33.8,320.3,33.8S608.7,163,608.7,322.3S479.6,610.7,320.3,610.7z"/>
<path class="st0" d="M320.3,100.8C198,100.8,98.8,200,98.8,322.3S198,543.7,320.3,543.7s221.5-99.1,221.5-221.5
	S442.6,100.8,320.3,100.8z M320.3,529.7c-114.6,0-207.5-92.9-207.5-207.5s92.9-207.5,207.5-207.5s207.5,92.9,207.5,207.5
	S434.9,529.7,320.3,529.7z"/>
<circle class="st0" cx="320.3" cy="322.3" r="137.5"/>
</svg>
